<svg class="main-svg" xmlns="http://www.w3.org/2000/svg" xmlns:xlink="http://www.w3.org/1999/xlink" width="900" height="900" style="" viewBox="0 0 900 900"><rect x="0" y="0" width="900" height="900" style="fill: rgb(255, 255, 255); fill-opacity: 1;"/><defs id="defs-05538e"><g class="clips"><clipPath id="clip05538exyplot" class="plotclip"><rect width="351.5" height="216.00000000000003"/></clipPath><clipPath id="clip05538ex2y2plot" class="plotclip"><rect width="351.5" height="216.00000000000003"/></clipPath><clipPath id="clip05538ex3y3plot" class="plotclip"><rect width="351.5" height="215.99999999999994"/></clipPath><clipPath id="clip05538ex4y4plot" class="plotclip"><rect width="351.5" height="215.99999999999994"/></clipPath><clipPath id="clip05538ex5y5plot" class="plotclip"><rect width="351.5" height="216"/></clipPath><clipPath class="axesclip" id="clip05538ex"><rect x="80" y="0" width="351.5" height="900"/></clipPath><clipPath class="axesclip" id="clip05538ey"><rect x="0" y="100" width="900" height="216.00000000000003"/></clipPath><clipPath class="axesclip" id="clip05538exy"><rect x="80" y="100" width="351.5" height="216.00000000000003"/></clipPath><clipPath class="axesclip" id="clip05538ey2"><rect x="0" y="100" width="900" height="216.00000000000003"/></clipPath><clipPath class="axesclip" id="clip05538exy2"><rect x="80" y="100" width="351.5" height="216.00000000000003"/></clipPath><clipPath class="axesclip" id="clip05538ey3"><rect x="0" y="352.00000000000006" width="900" height="215.99999999999994"/></clipPath><clipPath class="axesclip" id="clip05538exy3"><rect x="80" y="352.00000000000006" width="351.5" height="215.99999999999994"/></clipPath><clipPath class="axesclip" id="clip05538ey4"><rect x="0" y="352.00000000000006" width="900" height="215.99999999999994"/></clipPath><clipPath class="axesclip" id="clip05538exy4"><rect x="80" y="352.00000000000006" width="351.5" height="215.99999999999994"/></clipPath><clipPath class="axesclip" id="clip05538ey5"><rect x="0" y="604" width="900" height="216"/></clipPath><clipPath class="axesclip" id="clip05538exy5"><rect x="80" y="604" width="351.5" height="216"/></clipPath><clipPath class="axesclip" id="clip05538ex2"><rect x="468.5" y="0" width="351.5" height="900"/></clipPath><clipPath class="axesclip" id="clip05538ex2y"><rect x="468.5" y="100" width="351.5" height="216.00000000000003"/></clipPath><clipPath class="axesclip" id="clip05538ex2y2"><rect x="468.5" y="100" width="351.5" height="216.00000000000003"/></clipPath><clipPath class="axesclip" id="clip05538ex2y3"><rect x="468.5" y="352.00000000000006" width="351.5" height="215.99999999999994"/></clipPath><clipPath class="axesclip" id="clip05538ex2y4"><rect x="468.5" y="352.00000000000006" width="351.5" height="215.99999999999994"/></clipPath><clipPath class="axesclip" id="clip05538ex2y5"><rect x="468.5" y="604" width="351.5" height="216"/></clipPath><clipPath class="axesclip" id="clip05538ex3"><rect x="80" y="0" width="351.5" height="900"/></clipPath><clipPath class="axesclip" id="clip05538ex3y"><rect x="80" y="100" width="351.5" height="216.00000000000003"/></clipPath><clipPath class="axesclip" id="clip05538ex3y2"><rect x="80" y="100" width="351.5" height="216.00000000000003"/></clipPath><clipPath class="axesclip" id="clip05538ex3y3"><rect x="80" y="352.00000000000006" width="351.5" height="215.99999999999994"/></clipPath><clipPath class="axesclip" id="clip05538ex3y4"><rect x="80" y="352.00000000000006" width="351.5" height="215.99999999999994"/></clipPath><clipPath class="axesclip" id="clip05538ex3y5"><rect x="80" y="604" width="351.5" height="216"/></clipPath><clipPath class="axesclip" id="clip05538ex4"><rect x="468.5" y="0" width="351.5" height="900"/></clipPath><clipPath class="axesclip" id="clip05538ex4y"><rect x="468.5" y="100" width="351.5" height="216.00000000000003"/></clipPath><clipPath class="axesclip" id="clip05538ex4y2"><rect x="468.5" y="100" width="351.5" height="216.00000000000003"/></clipPath><clipPath class="axesclip" id="clip05538ex4y3"><rect x="468.5" y="352.00000000000006" width="351.5" height="215.99999999999994"/></clipPath><clipPath class="axesclip" id="clip05538ex4y4"><rect x="468.5" y="352.00000000000006" width="351.5" height="215.99999999999994"/></clipPath><clipPath class="axesclip" id="clip05538ex4y5"><rect x="468.5" y="604" width="351.5" height="216"/></clipPath><clipPath class="axesclip" id="clip05538ex5"><rect x="80" y="0" width="351.5" height="900"/></clipPath><clipPath class="axesclip" id="clip05538ex5y"><rect x="80" y="100" width="351.5" height="216.00000000000003"/></clipPath><clipPath class="axesclip" id="clip05538ex5y2"><rect x="80" y="100" width="351.5" height="216.00000000000003"/></clipPath><clipPath class="axesclip" id="clip05538ex5y3"><rect x="80" y="352.00000000000006" width="351.5" height="215.99999999999994"/></clipPath><clipPath class="axesclip" id="clip05538ex5y4"><rect x="80" y="352.00000000000006" width="351.5" height="215.99999999999994"/></clipPath><clipPath class="axesclip" id="clip05538ex5y5"><rect x="80" y="604" width="351.5" height="216"/></clipPath></g><g class="gradients"/><g class="patterns"/></defs><g class="bglayer"><rect class="bg" x="80" y="100" width="351.5" height="216.00000000000003" style="fill: rgb(237, 237, 237); fill-opacity: 1; stroke-width: 0;"/><rect class="bg" x="468.5" y="100" width="351.5" height="216.00000000000003" style="fill: rgb(237, 237, 237); fill-opacity: 1; stroke-width: 0;"/><rect class="bg" x="80" y="352.00000000000006" width="351.5" height="215.99999999999994" style="fill: rgb(237, 237, 237); fill-opacity: 1; stroke-width: 0;"/><rect class="bg" x="468.5" y="352.00000000000006" width="351.5" height="215.99999999999994" style="fill: rgb(237, 237, 237); fill-opacity: 1; stroke-width: 0;"/><rect class="bg" x="80" y="604" width="351.5" height="216" style="fill: rgb(237, 237, 237); fill-opacity: 1; stroke-width: 0;"/></g><g class="layer-below"><g class="imagelayer"/><g class="shapelayer"/></g><g class="cartesianlayer"><g class="subplot xy"><g class="layer-subplot"><g class="shapelayer"/><g class="imagelayer"/></g><g class="minor-gridlayer"><g class="x"/><g class="y"/></g><g class="gridlayer"><g class="x"><path class="xgrid crisp" transform="translate(204.28,0)" d="M0,100v216.00000000000003" style="stroke: rgb(255, 255, 255); stroke-opacity: 1; stroke-width: 1px;"/><path class="xgrid crisp" transform="translate(307.23,0)" d="M0,100v216.00000000000003" style="stroke: rgb(255, 255, 255); stroke-opacity: 1; stroke-width: 1px;"/><path class="xgrid crisp" transform="translate(410.18,0)" d="M0,100v216.00000000000003" style="stroke: rgb(255, 255, 255); stroke-opacity: 1; stroke-width: 1px;"/></g><g class="y"><path class="ygrid crisp" transform="translate(0,259.91999999999996)" d="M80,0h351.5" style="stroke: rgb(255, 255, 255); stroke-opacity: 1; stroke-width: 1px;"/><path class="ygrid crisp" transform="translate(0,218.38)" d="M80,0h351.5" style="stroke: rgb(255, 255, 255); stroke-opacity: 1; stroke-width: 1px;"/><path class="ygrid crisp" transform="translate(0,176.85)" d="M80,0h351.5" style="stroke: rgb(255, 255, 255); stroke-opacity: 1; stroke-width: 1px;"/><path class="ygrid crisp" transform="translate(0,135.32)" d="M80,0h351.5" style="stroke: rgb(255, 255, 255); stroke-opacity: 1; stroke-width: 1px;"/></g></g><g class="zerolinelayer"><path class="xzl zl crisp" transform="translate(101.33,0)" d="M0,100v216.00000000000003" style="stroke: rgb(255, 255, 255); stroke-opacity: 1; stroke-width: 1px;"/><path class="yzl zl crisp" transform="translate(0,301.45)" d="M80,0h351.5" style="stroke: rgb(255, 255, 255); stroke-opacity: 1; stroke-width: 1px;"/></g><g class="layer-between"><g class="shapelayer"/><g class="imagelayer"/></g><path class="xlines-below"/><path class="ylines-below"/><g class="overlines-below"/><g class="xaxislayer-below"/><g class="yaxislayer-below"/><g class="overaxes-below"/><g class="overplot"><g class="xy" transform="translate(80,100)" clip-path="url(#clip05538exyplot)"><g class="scatterlayer mlayer"><g class="trace scatter trace7e2c99" style="stroke-miterlimit: 2; opacity: 1;"><g class="fills"/><g class="errorbars"/><g class="lines"><path class="js-line" d="M21.33,201.45L330.18,14.55" style="vector-effect: none; fill: none; stroke: rgb(248, 118, 109); stroke-opacity: 1; stroke-width: 2px; opacity: 1;"/></g><g class="points"><path class="point" transform="translate(21.33,201.45)" d="M3,0A3,3 0 1,1 0,-3A3,3 0 0,1 3,0Z" style="opacity: 1; stroke-width: 0px; fill: rgb(248, 118, 109); fill-opacity: 1;"/><path class="point" transform="translate(124.28,139.15)" d="M3,0A3,3 0 1,1 0,-3A3,3 0 0,1 3,0Z" style="opacity: 1; stroke-width: 0px; fill: rgb(248, 118, 109); fill-opacity: 1;"/><path class="point" transform="translate(227.23,76.85)" d="M3,0A3,3 0 1,1 0,-3A3,3 0 0,1 3,0Z" style="opacity: 1; stroke-width: 0px; fill: rgb(248, 118, 109); fill-opacity: 1;"/><path class="point" transform="translate(330.18,14.55)" d="M3,0A3,3 0 1,1 0,-3A3,3 0 0,1 3,0Z" style="opacity: 1; stroke-width: 0px; fill: rgb(248, 118, 109); fill-opacity: 1;"/></g><g class="text"/></g></g></g></g><path class="xlines-above crisp" d="" style="fill: none; stroke-width: 1px; stroke: rgb(0, 0, 0); stroke-opacity: 0;"/><path class="ylines-above crisp" d="" style="fill: none; stroke-width: 1px; stroke: rgb(0, 0, 0); stroke-opacity: 0;"/><g class="overlines-above"/><g class="xaxislayer-above"><path class="xtick ticks crisp" d="M0,317v5" transform="translate(101.33,0)" style="stroke: rgb(51, 51, 51); stroke-opacity: 1; stroke-width: 1px;"/><path class="xtick ticks crisp" d="M0,317v5" transform="translate(204.28,0)" style="stroke: rgb(51, 51, 51); stroke-opacity: 1; stroke-width: 1px;"/><path class="xtick ticks crisp" d="M0,317v5" transform="translate(307.23,0)" style="stroke: rgb(51, 51, 51); stroke-opacity: 1; stroke-width: 1px;"/><path class="xtick ticks crisp" d="M0,317v5" transform="translate(410.18,0)" style="stroke: rgb(51, 51, 51); stroke-opacity: 1; stroke-width: 1px;"/><g class="xtick"><text text-anchor="middle" x="0" y="336.4" transform="translate(101.33,0)" style="font-family: 'Open Sans', verdana, arial, sans-serif; font-size: 12px; fill: rgb(51, 51, 51); fill-opacity: 1; white-space: pre; opacity: 1;">0</text></g><g class="xtick"><text text-anchor="middle" x="0" y="336.4" style="font-family: 'Open Sans', verdana, arial, sans-serif; font-size: 12px; fill: rgb(51, 51, 51); fill-opacity: 1; white-space: pre; opacity: 1;" transform="translate(204.28,0)">1</text></g><g class="xtick"><text text-anchor="middle" x="0" y="336.4" style="font-family: 'Open Sans', verdana, arial, sans-serif; font-size: 12px; fill: rgb(51, 51, 51); fill-opacity: 1; white-space: pre; opacity: 1;" transform="translate(307.23,0)">2</text></g><g class="xtick"><text text-anchor="middle" x="0" y="336.4" style="font-family: 'Open Sans', verdana, arial, sans-serif; font-size: 12px; fill: rgb(51, 51, 51); fill-opacity: 1; white-space: pre; opacity: 1;" transform="translate(410.18,0)">3</text></g></g><g class="yaxislayer-above"><path class="ytick ticks crisp" d="M79,0h-5" transform="translate(0,301.45)" style="stroke: rgb(51, 51, 51); stroke-opacity: 1; stroke-width: 1px;"/><path class="ytick ticks crisp" d="M79,0h-5" transform="translate(0,259.91999999999996)" style="stroke: rgb(51, 51, 51); stroke-opacity: 1; stroke-width: 1px;"/><path class="ytick ticks crisp" d="M79,0h-5" transform="translate(0,218.38)" style="stroke: rgb(51, 51, 51); stroke-opacity: 1; stroke-width: 1px;"/><path class="ytick ticks crisp" d="M79,0h-5" transform="translate(0,176.85)" style="stroke: rgb(51, 51, 51); stroke-opacity: 1; stroke-width: 1px;"/><path class="ytick ticks crisp" d="M79,0h-5" transform="translate(0,135.32)" style="stroke: rgb(51, 51, 51); stroke-opacity: 1; stroke-width: 1px;"/><g class="ytick"><text text-anchor="end" x="71.6" y="4.199999999999999" transform="translate(0,301.45)" style="font-family: 'Open Sans', verdana, arial, sans-serif; font-size: 12px; fill: rgb(51, 51, 51); fill-opacity: 1; white-space: pre; opacity: 1;">0</text></g><g class="ytick"><text text-anchor="end" x="71.6" y="4.199999999999999" style="font-family: 'Open Sans', verdana, arial, sans-serif; font-size: 12px; fill: rgb(51, 51, 51); fill-opacity: 1; white-space: pre; opacity: 1;" transform="translate(0,259.91999999999996)">2</text></g><g class="ytick"><text text-anchor="end" x="71.6" y="4.199999999999999" style="font-family: 'Open Sans', verdana, arial, sans-serif; font-size: 12px; fill: rgb(51, 51, 51); fill-opacity: 1; white-space: pre; opacity: 1;" transform="translate(0,218.38)">4</text></g><g class="ytick"><text text-anchor="end" x="71.6" y="4.199999999999999" style="font-family: 'Open Sans', verdana, arial, sans-serif; font-size: 12px; fill: rgb(51, 51, 51); fill-opacity: 1; white-space: pre; opacity: 1;" transform="translate(0,176.85)">6</text></g><g class="ytick"><text text-anchor="end" x="71.6" y="4.199999999999999" style="font-family: 'Open Sans', verdana, arial, sans-serif; font-size: 12px; fill: rgb(51, 51, 51); fill-opacity: 1; white-space: pre; opacity: 1;" transform="translate(0,135.32)">8</text></g></g><g class="overaxes-above"/></g><g class="subplot x2y2"><g class="layer-subplot"><g class="shapelayer"/><g class="imagelayer"/></g><g class="minor-gridlayer"><g class="x2"/><g class="y2"/></g><g class="gridlayer"><g class="x2"><path class="x2grid crisp" transform="translate(585.67,0)" d="M0,100v216.00000000000003" style="stroke: rgb(255, 255, 255); stroke-opacity: 1; stroke-width: 1px;"/><path class="x2grid crisp" transform="translate(702.83,0)" d="M0,100v216.00000000000003" style="stroke: rgb(255, 255, 255); stroke-opacity: 1; stroke-width: 1px;"/></g><g class="y2"><path class="y2grid crisp" transform="translate(0,256.6)" d="M468.5,0h351.5" style="stroke: rgb(255, 255, 255); stroke-opacity: 1; stroke-width: 1px;"/><path class="y2grid crisp" transform="translate(0,208)" d="M468.5,0h351.5" style="stroke: rgb(255, 255, 255); stroke-opacity: 1; stroke-width: 1px;"/><path class="y2grid crisp" transform="translate(0,159.4)" d="M468.5,0h351.5" style="stroke: rgb(255, 255, 255); stroke-opacity: 1; stroke-width: 1px;"/><path class="y2grid crisp" transform="translate(0,110.8)" d="M468.5,0h351.5" style="stroke: rgb(255, 255, 255); stroke-opacity: 1; stroke-width: 1px;"/></g></g><g class="zerolinelayer"><path class="x2zl zl crisp" transform="translate(468.5,0)" d="M0,100v216.00000000000003" style="stroke: rgb(255, 255, 255); stroke-opacity: 1; stroke-width: 1px;"/><path class="y2zl zl crisp" transform="translate(0,305.2)" d="M468.5,0h351.5" style="stroke: rgb(255, 255, 255); stroke-opacity: 1; stroke-width: 1px;"/></g><g class="layer-between"><g class="shapelayer"/><g class="imagelayer"/></g><path class="xlines-below"/><path class="ylines-below"/><g class="overlines-below"/><g class="xaxislayer-below"/><g class="yaxislayer-below"/><g class="overaxes-below"/><g class="overplot"><g class="x2y2" transform="translate(468.5,100)" clip-path="url(#clip05538ex2y2plot)"><g class="scatterlayer mlayer"><g class="trace scatter tracea60bcb" style="stroke-miterlimit: 2; opacity: 1;"><g class="fills"/><g class="errorbars"/><g class="lines"><path class="js-line" d="M0,205.2L117.17,83.7L234.33,156.6L351.5,10.8" style="vector-effect: none; fill: none; stroke: rgb(163, 165, 0); stroke-opacity: 1; stroke-width: 2px; opacity: 1;"/></g><g class="points"/><g class="text"/></g></g></g></g><path class="xlines-above crisp" d="" style="fill: none; stroke-width: 1px; stroke: rgb(0, 0, 0); stroke-opacity: 0;"/><path class="ylines-above crisp" d="" style="fill: none; stroke-width: 1px; stroke: rgb(0, 0, 0); stroke-opacity: 0;"/><g class="overlines-above"/><g class="xaxislayer-above"><path class="x2tick ticks crisp" d="M0,317v5" transform="translate(468.5,0)" style="stroke: rgb(51, 51, 51); stroke-opacity: 1; stroke-width: 1px;"/><path class="x2tick ticks crisp" d="M0,317v5" transform="translate(585.67,0)" style="stroke: rgb(51, 51, 51); stroke-opacity: 1; stroke-width: 1px;"/><path class="x2tick ticks crisp" d="M0,317v5" transform="translate(702.83,0)" style="stroke: rgb(51, 51, 51); stroke-opacity: 1; stroke-width: 1px;"/><path class="x2tick ticks crisp" d="M0,317v5" transform="translate(820,0)" style="stroke: rgb(51, 51, 51); stroke-opacity: 1; stroke-width: 1px;"/><g class="x2tick"><text text-anchor="middle" x="0" y="336.4" transform="translate(468.5,0)" style="font-family: 'Open Sans', verdana, arial, sans-serif; font-size: 12px; fill: rgb(51, 51, 51); fill-opacity: 1; white-space: pre; opacity: 1;">0</text></g><g class="x2tick"><text text-anchor="middle" x="0" y="336.4" style="font-family: 'Open Sans', verdana, arial, sans-serif; font-size: 12px; fill: rgb(51, 51, 51); fill-opacity: 1; white-space: pre; opacity: 1;" transform="translate(585.67,0)">1</text></g><g class="x2tick"><text text-anchor="middle" x="0" y="336.4" style="font-family: 'Open Sans', verdana, arial, sans-serif; font-size: 12px; fill: rgb(51, 51, 51); fill-opacity: 1; white-space: pre; opacity: 1;" transform="translate(702.83,0)">2</text></g><g class="x2tick"><text text-anchor="middle" x="0" y="336.4" style="font-family: 'Open Sans', verdana, arial, sans-serif; font-size: 12px; fill: rgb(51, 51, 51); fill-opacity: 1; white-space: pre; opacity: 1;" transform="translate(820,0)">3</text></g></g><g class="yaxislayer-above"><path class="y2tick ticks crisp" d="M467.5,0h-5" transform="translate(0,305.2)" style="stroke: rgb(51, 51, 51); stroke-opacity: 1; stroke-width: 1px;"/><path class="y2tick ticks crisp" d="M467.5,0h-5" transform="translate(0,256.6)" style="stroke: rgb(51, 51, 51); stroke-opacity: 1; stroke-width: 1px;"/><path class="y2tick ticks crisp" d="M467.5,0h-5" transform="translate(0,208)" style="stroke: rgb(51, 51, 51); stroke-opacity: 1; stroke-width: 1px;"/><path class="y2tick ticks crisp" d="M467.5,0h-5" transform="translate(0,159.4)" style="stroke: rgb(51, 51, 51); stroke-opacity: 1; stroke-width: 1px;"/><path class="y2tick ticks crisp" d="M467.5,0h-5" transform="translate(0,110.8)" style="stroke: rgb(51, 51, 51); stroke-opacity: 1; stroke-width: 1px;"/><g class="y2tick"><text text-anchor="end" x="460.1" y="4.199999999999999" transform="translate(0,305.2)" style="font-family: 'Open Sans', verdana, arial, sans-serif; font-size: 12px; fill: rgb(51, 51, 51); fill-opacity: 1; white-space: pre; opacity: 1;">0</text></g><g class="y2tick"><text text-anchor="end" x="460.1" y="4.199999999999999" style="font-family: 'Open Sans', verdana, arial, sans-serif; font-size: 12px; fill: rgb(51, 51, 51); fill-opacity: 1; white-space: pre; opacity: 1;" transform="translate(0,256.6)">2</text></g><g class="y2tick"><text text-anchor="end" x="460.1" y="4.199999999999999" style="font-family: 'Open Sans', verdana, arial, sans-serif; font-size: 12px; fill: rgb(51, 51, 51); fill-opacity: 1; white-space: pre; opacity: 1;" transform="translate(0,208)">4</text></g><g class="y2tick"><text text-anchor="end" x="460.1" y="4.199999999999999" style="font-family: 'Open Sans', verdana, arial, sans-serif; font-size: 12px; fill: rgb(51, 51, 51); fill-opacity: 1; white-space: pre; opacity: 1;" transform="translate(0,159.4)">6</text></g><g class="y2tick"><text text-anchor="end" x="460.1" y="4.199999999999999" style="font-family: 'Open Sans', verdana, arial, sans-serif; font-size: 12px; fill: rgb(51, 51, 51); fill-opacity: 1; white-space: pre; opacity: 1;" transform="translate(0,110.8)">8</text></g></g><g class="overaxes-above"/></g><g class="subplot x3y3"><g class="layer-subplot"><g class="shapelayer"/><g class="imagelayer"/></g><g class="minor-gridlayer"><g class="x3"/><g class="y3"/></g><g class="gridlayer"><g class="x3"><path class="x3grid crisp" transform="translate(204.28,0)" d="M0,352.00000000000006v215.99999999999994" style="stroke: rgb(255, 255, 255); stroke-opacity: 1; stroke-width: 1px;"/><path class="x3grid crisp" transform="translate(307.23,0)" d="M0,352.00000000000006v215.99999999999994" style="stroke: rgb(255, 255, 255); stroke-opacity: 1; stroke-width: 1px;"/><path class="x3grid crisp" transform="translate(410.18,0)" d="M0,352.00000000000006v215.99999999999994" style="stroke: rgb(255, 255, 255); stroke-opacity: 1; stroke-width: 1px;"/></g><g class="y3"><path class="y3grid crisp" transform="translate(0,522.3000000000001)" d="M80,0h351.5" style="stroke: rgb(255, 255, 255); stroke-opacity: 1; stroke-width: 1px;"/><path class="y3grid crisp" transform="translate(0,460.00000000000006)" d="M80,0h351.5" style="stroke: rgb(255, 255, 255); stroke-opacity: 1; stroke-width: 1px;"/><path class="y3grid crisp" transform="translate(0,397.70000000000005)" d="M80,0h351.5" style="stroke: rgb(255, 255, 255); stroke-opacity: 1; stroke-width: 1px;"/></g></g><g class="zerolinelayer"><path class="x3zl zl crisp" transform="translate(101.33,0)" d="M0,352.00000000000006v215.99999999999994" style="stroke: rgb(255, 255, 255); stroke-opacity: 1; stroke-width: 1px;"/></g><g class="layer-between"><g class="shapelayer"/><g class="imagelayer"/></g><path class="xlines-below"/><path class="ylines-below"/><g class="overlines-below"/><g class="xaxislayer-below"/><g class="yaxislayer-below"/><g class="overaxes-below"/><g class="overplot"><g class="x3y3" transform="translate(80,352.00000000000006)" clip-path="url(#clip05538ex3y3plot)"><g class="scatterlayer mlayer"><g class="trace scatter trace31682f" style="stroke-miterlimit: 2; opacity: 1;"><g class="fills"/><g class="errorbars"/><g class="lines"><path class="js-line" d="M21.33,76.85L124.28,139.15L227.23,14.55L330.18,201.45" style="vector-effect: none; fill: none; stroke: rgb(0, 191, 125); stroke-opacity: 1; stroke-width: 2px; opacity: 1;"/></g><g class="points"><path class="point" transform="translate(21.33,76.85)" d="M3,0A3,3 0 1,1 0,-3A3,3 0 0,1 3,0Z" style="opacity: 1; stroke-width: 0px; fill: rgb(0, 191, 125); fill-opacity: 1;"/><path class="point" transform="translate(124.28,139.15)" d="M3,0A3,3 0 1,1 0,-3A3,3 0 0,1 3,0Z" style="opacity: 1; stroke-width: 0px; fill: rgb(0, 191, 125); fill-opacity: 1;"/><path class="point" transform="translate(227.23,14.55)" d="M3,0A3,3 0 1,1 0,-3A3,3 0 0,1 3,0Z" style="opacity: 1; stroke-width: 0px; fill: rgb(0, 191, 125); fill-opacity: 1;"/><path class="point" transform="translate(330.18,201.45)" d="M3,0A3,3 0 1,1 0,-3A3,3 0 0,1 3,0Z" style="opacity: 1; stroke-width: 0px; fill: rgb(0, 191, 125); fill-opacity: 1;"/></g><g class="text"/></g></g></g></g><path class="xlines-above crisp" d="" style="fill: none; stroke-width: 1px; stroke: rgb(0, 0, 0); stroke-opacity: 0;"/><path class="ylines-above crisp" d="" style="fill: none; stroke-width: 1px; stroke: rgb(0, 0, 0); stroke-opacity: 0;"/><g class="overlines-above"/><g class="xaxislayer-above"><path class="x3tick ticks crisp" d="M0,569v5" transform="translate(101.33,0)" style="stroke: rgb(51, 51, 51); stroke-opacity: 1; stroke-width: 1px;"/><path class="x3tick ticks crisp" d="M0,569v5" transform="translate(204.28,0)" style="stroke: rgb(51, 51, 51); stroke-opacity: 1; stroke-width: 1px;"/><path class="x3tick ticks crisp" d="M0,569v5" transform="translate(307.23,0)" style="stroke: rgb(51, 51, 51); stroke-opacity: 1; stroke-width: 1px;"/><path class="x3tick ticks crisp" d="M0,569v5" transform="translate(410.18,0)" style="stroke: rgb(51, 51, 51); stroke-opacity: 1; stroke-width: 1px;"/><g class="x3tick"><text text-anchor="middle" x="0" y="588.4" transform="translate(101.33,0)" style="font-family: 'Open Sans', verdana, arial, sans-serif; font-size: 12px; fill: rgb(51, 51, 51); fill-opacity: 1; white-space: pre; opacity: 1;">0</text></g><g class="x3tick"><text text-anchor="middle" x="0" y="588.4" style="font-family: 'Open Sans', verdana, arial, sans-serif; font-size: 12px; fill: rgb(51, 51, 51); fill-opacity: 1; white-space: pre; opacity: 1;" transform="translate(204.28,0)">1</text></g><g class="x3tick"><text text-anchor="middle" x="0" y="588.4" style="font-family: 'Open Sans', verdana, arial, sans-serif; font-size: 12px; fill: rgb(51, 51, 51); fill-opacity: 1; white-space: pre; opacity: 1;" transform="translate(307.23,0)">2</text></g><g class="x3tick"><text text-anchor="middle" x="0" y="588.4" style="font-family: 'Open Sans', verdana, arial, sans-serif; font-size: 12px; fill: rgb(51, 51, 51); fill-opacity: 1; white-space: pre; opacity: 1;" transform="translate(410.18,0)">3</text></g></g><g class="yaxislayer-above"><path class="y3tick ticks crisp" d="M79,0h-5" transform="translate(0,522.3000000000001)" style="stroke: rgb(51, 51, 51); stroke-opacity: 1; stroke-width: 1px;"/><path class="y3tick ticks crisp" d="M79,0h-5" transform="translate(0,460.00000000000006)" style="stroke: rgb(51, 51, 51); stroke-opacity: 1; stroke-width: 1px;"/><path class="y3tick ticks crisp" d="M79,0h-5" transform="translate(0,397.70000000000005)" style="stroke: rgb(51, 51, 51); stroke-opacity: 1; stroke-width: 1px;"/><g class="y3tick"><text text-anchor="end" x="71.6" y="4.199999999999999" transform="translate(0,522.3000000000001)" style="font-family: 'Open Sans', verdana, arial, sans-serif; font-size: 12px; fill: rgb(51, 51, 51); fill-opacity: 1; white-space: pre; opacity: 1;">2</text></g><g class="y3tick"><text text-anchor="end" x="71.6" y="4.199999999999999" style="font-family: 'Open Sans', verdana, arial, sans-serif; font-size: 12px; fill: rgb(51, 51, 51); fill-opacity: 1; white-space: pre; opacity: 1;" transform="translate(0,460.00000000000006)">4</text></g><g class="y3tick"><text text-anchor="end" x="71.6" y="4.199999999999999" style="font-family: 'Open Sans', verdana, arial, sans-serif; font-size: 12px; fill: rgb(51, 51, 51); fill-opacity: 1; white-space: pre; opacity: 1;" transform="translate(0,397.70000000000005)">6</text></g></g><g class="overaxes-above"/></g><g class="subplot x4y4"><g class="layer-subplot"><g class="shapelayer"/><g class="imagelayer"/></g><g class="minor-gridlayer"><g class="x4"/><g class="y4"/></g><g class="gridlayer"><g class="x4"><path class="x4grid crisp" transform="translate(585.67,0)" d="M0,352.00000000000006v215.99999999999994" style="stroke: rgb(255, 255, 255); stroke-opacity: 1; stroke-width: 1px;"/><path class="x4grid crisp" transform="translate(702.83,0)" d="M0,352.00000000000006v215.99999999999994" style="stroke: rgb(255, 255, 255); stroke-opacity: 1; stroke-width: 1px;"/></g><g class="y4"><path class="y4grid crisp" transform="translate(0,510.44000000000005)" d="M468.5,0h351.5" style="stroke: rgb(255, 255, 255); stroke-opacity: 1; stroke-width: 1px;"/><path class="y4grid crisp" transform="translate(0,452.89000000000004)" d="M468.5,0h351.5" style="stroke: rgb(255, 255, 255); stroke-opacity: 1; stroke-width: 1px;"/><path class="y4grid crisp" transform="translate(0,395.33000000000004)" d="M468.5,0h351.5" style="stroke: rgb(255, 255, 255); stroke-opacity: 1; stroke-width: 1px;"/></g></g><g class="zerolinelayer"><path class="x4zl zl crisp" transform="translate(468.5,0)" d="M0,352.00000000000006v215.99999999999994" style="stroke: rgb(255, 255, 255); stroke-opacity: 1; stroke-width: 1px;"/><path class="y4zl zl crisp" transform="translate(0,568)" d="M468.5,0h351.5" style="stroke: rgb(255, 255, 255); stroke-opacity: 1; stroke-width: 1px;"/></g><g class="layer-between"><g class="shapelayer"/><g class="imagelayer"/></g><path class="xlines-below"/><path class="ylines-below"/><g class="overlines-below"/><g class="xaxislayer-below"/><g class="yaxislayer-below"/><g class="overaxes-below"/><g class="overplot"><g class="x4y4" transform="translate(468.5,352.00000000000006)" clip-path="url(#clip05538ex4y4plot)"><g class="scatterlayer mlayer"><g class="trace scatter trace0aa953" style="stroke-miterlimit: 2;"><g class="fills"><g><path class="js-fill" d="M351.5,216L0,216L0,187.22L351.5,14.55" style="fill: rgb(0, 176, 246); fill-opacity: 0.5; stroke-width: 0;"/></g></g><g class="errorbars"/><g class="lines"><path class="js-line" d="M0,187.22L351.5,14.55" style="vector-effect: none; fill: none; stroke: rgb(0, 176, 246); stroke-opacity: 1; stroke-width: 2px; opacity: 1;"/></g><g class="points"><path class="point" transform="translate(0,187.22)" d="M3,0A3,3 0 1,1 0,-3A3,3 0 0,1 3,0Z" style="opacity: 1; stroke-width: 0px; fill: rgb(0, 176, 246); fill-opacity: 1;"/><path class="point" transform="translate(117.17,129.66)" d="M3,0A3,3 0 1,1 0,-3A3,3 0 0,1 3,0Z" style="opacity: 1; stroke-width: 0px; fill: rgb(0, 176, 246); fill-opacity: 1;"/><path class="point" transform="translate(234.33,72.11)" d="M3,0A3,3 0 1,1 0,-3A3,3 0 0,1 3,0Z" style="opacity: 1; stroke-width: 0px; fill: rgb(0, 176, 246); fill-opacity: 1;"/><path class="point" transform="translate(351.5,14.55)" d="M3,0A3,3 0 1,1 0,-3A3,3 0 0,1 3,0Z" style="opacity: 1; stroke-width: 0px; fill: rgb(0, 176, 246); fill-opacity: 1;"/></g><g class="text"/></g></g></g></g><path class="xlines-above crisp" d="" style="fill: none; stroke-width: 1px; stroke: rgb(0, 0, 0); stroke-opacity: 0;"/><path class="ylines-above crisp" d="" style="fill: none; stroke-width: 1px; stroke: rgb(0, 0, 0); stroke-opacity: 0;"/><g class="overlines-above"/><g class="xaxislayer-above"><path class="x4tick ticks crisp" d="M0,569v5" transform="translate(468.5,0)" style="stroke: rgb(51, 51, 51); stroke-opacity: 1; stroke-width: 1px;"/><path class="x4tick ticks crisp" d="M0,569v5" transform="translate(585.67,0)" style="stroke: rgb(51, 51, 51); stroke-opacity: 1; stroke-width: 1px;"/><path class="x4tick ticks crisp" d="M0,569v5" transform="translate(702.83,0)" style="stroke: rgb(51, 51, 51); stroke-opacity: 1; stroke-width: 1px;"/><path class="x4tick ticks crisp" d="M0,569v5" transform="translate(820,0)" style="stroke: rgb(51, 51, 51); stroke-opacity: 1; stroke-width: 1px;"/><g class="x4tick"><text text-anchor="middle" x="0" y="588.4" transform="translate(468.5,0)" style="font-family: 'Open Sans', verdana, arial, sans-serif; font-size: 12px; fill: rgb(51, 51, 51); fill-opacity: 1; white-space: pre; opacity: 1;">0</text></g><g class="x4tick"><text text-anchor="middle" x="0" y="588.4" style="font-family: 'Open Sans', verdana, arial, sans-serif; font-size: 12px; fill: rgb(51, 51, 51); fill-opacity: 1; white-space: pre; opacity: 1;" transform="translate(585.67,0)">1</text></g><g class="x4tick"><text text-anchor="middle" x="0" y="588.4" style="font-family: 'Open Sans', verdana, arial, sans-serif; font-size: 12px; fill: rgb(51, 51, 51); fill-opacity: 1; white-space: pre; opacity: 1;" transform="translate(702.83,0)">2</text></g><g class="x4tick"><text text-anchor="middle" x="0" y="588.4" style="font-family: 'Open Sans', verdana, arial, sans-serif; font-size: 12px; fill: rgb(51, 51, 51); fill-opacity: 1; white-space: pre; opacity: 1;" transform="translate(820,0)">3</text></g></g><g class="yaxislayer-above"><path class="y4tick ticks crisp" d="M467.5,0h-5" transform="translate(0,568)" style="stroke: rgb(51, 51, 51); stroke-opacity: 1; stroke-width: 1px;"/><path class="y4tick ticks crisp" d="M467.5,0h-5" transform="translate(0,510.44000000000005)" style="stroke: rgb(51, 51, 51); stroke-opacity: 1; stroke-width: 1px;"/><path class="y4tick ticks crisp" d="M467.5,0h-5" transform="translate(0,452.89000000000004)" style="stroke: rgb(51, 51, 51); stroke-opacity: 1; stroke-width: 1px;"/><path class="y4tick ticks crisp" d="M467.5,0h-5" transform="translate(0,395.33000000000004)" style="stroke: rgb(51, 51, 51); stroke-opacity: 1; stroke-width: 1px;"/><g class="y4tick"><text text-anchor="end" x="460.1" y="4.199999999999999" transform="translate(0,568)" style="font-family: 'Open Sans', verdana, arial, sans-serif; font-size: 12px; fill: rgb(51, 51, 51); fill-opacity: 1; white-space: pre; opacity: 1;">0</text></g><g class="y4tick"><text text-anchor="end" x="460.1" y="4.199999999999999" style="font-family: 'Open Sans', verdana, arial, sans-serif; font-size: 12px; fill: rgb(51, 51, 51); fill-opacity: 1; white-space: pre; opacity: 1;" transform="translate(0,510.44000000000005)">2</text></g><g class="y4tick"><text text-anchor="end" x="460.1" y="4.199999999999999" style="font-family: 'Open Sans', verdana, arial, sans-serif; font-size: 12px; fill: rgb(51, 51, 51); fill-opacity: 1; white-space: pre; opacity: 1;" transform="translate(0,452.89000000000004)">4</text></g><g class="y4tick"><text text-anchor="end" x="460.1" y="4.199999999999999" style="font-family: 'Open Sans', verdana, arial, sans-serif; font-size: 12px; fill: rgb(51, 51, 51); fill-opacity: 1; white-space: pre; opacity: 1;" transform="translate(0,395.33000000000004)">6</text></g></g><g class="overaxes-above"/></g><g class="subplot x5y5"><g class="layer-subplot"><g class="shapelayer"/><g class="imagelayer"/></g><g class="minor-gridlayer"><g class="x5"/><g class="y5"/></g><g class="gridlayer"><g class="x5"><path class="x5grid crisp" transform="translate(138.57999999999998,0)" d="M0,604v216" style="stroke: rgb(255, 255, 255); stroke-opacity: 1; stroke-width: 1px;"/><path class="x5grid crisp" transform="translate(255.75,0)" d="M0,604v216" style="stroke: rgb(255, 255, 255); stroke-opacity: 1; stroke-width: 1px;"/><path class="x5grid crisp" transform="translate(372.92,0)" d="M0,604v216" style="stroke: rgb(255, 255, 255); stroke-opacity: 1; stroke-width: 1px;"/></g><g class="y5"><path class="y5grid crisp" transform="translate(0,761.37)" d="M80,0h351.5" style="stroke: rgb(255, 255, 255); stroke-opacity: 1; stroke-width: 1px;"/><path class="y5grid crisp" transform="translate(0,702.74)" d="M80,0h351.5" style="stroke: rgb(255, 255, 255); stroke-opacity: 1; stroke-width: 1px;"/><path class="y5grid crisp" transform="translate(0,644.11)" d="M80,0h351.5" style="stroke: rgb(255, 255, 255); stroke-opacity: 1; stroke-width: 1px;"/></g></g><g class="zerolinelayer"><path class="y5zl zl crisp" transform="translate(0,820)" d="M80,0h351.5" style="stroke: rgb(255, 255, 255); stroke-opacity: 1; stroke-width: 1px;"/></g><g class="layer-between"><g class="shapelayer"/><g class="imagelayer"/></g><path class="xlines-below"/><path class="ylines-below"/><g class="overlines-below"/><g class="xaxislayer-below"/><g class="yaxislayer-below"/><g class="overaxes-below"/><g class="overplot"><g class="x5y5" transform="translate(80,604)" clip-path="url(#clip05538ex5y5plot)"><g class="barlayer mlayer"><g class="trace bars" style="opacity: 1;"><g class="points"><g class="point"><path d="M11.72,216V157.37H105.45V216Z" style="vector-effect: none; opacity: 1; stroke-width: 0.5px; fill: rgb(231, 107, 243); fill-opacity: 1; stroke: rgb(237, 237, 237); stroke-opacity: 1;"/></g><g class="point"><path d="M128.88,216V69.43H222.62V216Z" style="vector-effect: none; opacity: 1; stroke-width: 0.5px; fill: rgb(231, 107, 243); fill-opacity: 1; stroke: rgb(237, 237, 237); stroke-opacity: 1;"/></g><g class="point"><path d="M246.05,216V10.8H339.78V216Z" style="vector-effect: none; opacity: 1; stroke-width: 0.5px; fill: rgb(231, 107, 243); fill-opacity: 1; stroke: rgb(237, 237, 237); stroke-opacity: 1;"/></g></g></g></g></g></g><path class="xlines-above crisp" d="" style="fill: none; stroke-width: 1px; stroke: rgb(0, 0, 0); stroke-opacity: 0;"/><path class="ylines-above crisp" d="" style="fill: none; stroke-width: 1px; stroke: rgb(0, 0, 0); stroke-opacity: 0;"/><g class="overlines-above"/><g class="xaxislayer-above"><path class="x5tick ticks crisp" d="M0,821v5" transform="translate(138.57999999999998,0)" style="stroke: rgb(51, 51, 51); stroke-opacity: 1; stroke-width: 1px;"/><path class="x5tick ticks crisp" d="M0,821v5" transform="translate(255.75,0)" style="stroke: rgb(51, 51, 51); stroke-opacity: 1; stroke-width: 1px;"/><path class="x5tick ticks crisp" d="M0,821v5" transform="translate(372.92,0)" style="stroke: rgb(51, 51, 51); stroke-opacity: 1; stroke-width: 1px;"/><g class="x5tick"><text text-anchor="middle" x="0" y="840.4" transform="translate(138.57999999999998,0)" style="font-family: 'Open Sans', verdana, arial, sans-serif; font-size: 12px; fill: rgb(51, 51, 51); fill-opacity: 1; white-space: pre; opacity: 1;">a</text></g><g class="x5tick"><text text-anchor="middle" x="0" y="840.4" transform="translate(255.75,0)" style="font-family: 'Open Sans', verdana, arial, sans-serif; font-size: 12px; fill: rgb(51, 51, 51); fill-opacity: 1; white-space: pre; opacity: 1;">b</text></g><g class="x5tick"><text text-anchor="middle" x="0" y="840.4" transform="translate(372.92,0)" style="font-family: 'Open Sans', verdana, arial, sans-serif; font-size: 12px; fill: rgb(51, 51, 51); fill-opacity: 1; white-space: pre; opacity: 1;">c</text></g></g><g class="yaxislayer-above"><path class="y5tick ticks crisp" d="M79,0h-5" transform="translate(0,820)" style="stroke: rgb(51, 51, 51); stroke-opacity: 1; stroke-width: 1px;"/><path class="y5tick ticks crisp" d="M79,0h-5" transform="translate(0,761.37)" style="stroke: rgb(51, 51, 51); stroke-opacity: 1; stroke-width: 1px;"/><path class="y5tick ticks crisp" d="M79,0h-5" transform="translate(0,702.74)" style="stroke: rgb(51, 51, 51); stroke-opacity: 1; stroke-width: 1px;"/><path class="y5tick ticks crisp" d="M79,0h-5" transform="translate(0,644.11)" style="stroke: rgb(51, 51, 51); stroke-opacity: 1; stroke-width: 1px;"/><g class="y5tick"><text text-anchor="end" x="71.6" y="4.199999999999999" transform="translate(0,820)" style="font-family: 'Open Sans', verdana, arial, sans-serif; font-size: 12px; fill: rgb(51, 51, 51); fill-opacity: 1; white-space: pre; opacity: 1;">0</text></g><g class="y5tick"><text text-anchor="end" x="71.6" y="4.199999999999999" style="font-family: 'Open Sans', verdana, arial, sans-serif; font-size: 12px; fill: rgb(51, 51, 51); fill-opacity: 1; white-space: pre; opacity: 1;" transform="translate(0,761.37)">2</text></g><g class="y5tick"><text text-anchor="end" x="71.6" y="4.199999999999999" style="font-family: 'Open Sans', verdana, arial, sans-serif; font-size: 12px; fill: rgb(51, 51, 51); fill-opacity: 1; white-space: pre; opacity: 1;" transform="translate(0,702.74)">4</text></g><g class="y5tick"><text text-anchor="end" x="71.6" y="4.199999999999999" style="font-family: 'Open Sans', verdana, arial, sans-serif; font-size: 12px; fill: rgb(51, 51, 51); fill-opacity: 1; white-space: pre; opacity: 1;" transform="translate(0,644.11)">6</text></g></g><g class="overaxes-above"/></g></g><g class="polarlayer"/><g class="smithlayer"/><g class="ternarylayer"/><g class="geolayer"/><g class="funnelarealayer"/><g class="pielayer"/><g class="iciclelayer"/><g class="treemaplayer"/><g class="sunburstlayer"/><g class="glimages"/><defs id="topdefs-05538e"><g class="clips"/></defs><g class="layer-above"><g class="imagelayer"/><g class="shapelayer"/></g><g class="infolayer"><g class="g-gtitle"/><g class="g-xtitle"/><g class="g-x2title"/><g class="g-x3title"/><g class="g-x4title"/><g class="g-x5title"/><g class="g-ytitle"/><g class="g-y2title"/><g class="g-y3title"/><g class="g-y4title"/><g class="g-y5title"/></g></svg>