<svg class="main-svg" xmlns="http://www.w3.org/2000/svg" xmlns:xlink="http://www.w3.org/1999/xlink" width="900" height="900" style="" viewBox="0 0 900 900"><rect x="0" y="0" width="900" height="900" style="fill: rgb(255, 255, 255); fill-opacity: 1;"/><defs id="defs-613d46"><g class="clips"><clipPath id="clip613d46xyplot" class="plotclip"><rect width="351.5" height="216.00000000000003"/></clipPath><clipPath id="clip613d46x2y2plot" class="plotclip"><rect width="351.5" height="216.00000000000003"/></clipPath><clipPath id="clip613d46x3y3plot" class="plotclip"><rect width="351.5" height="215.99999999999994"/></clipPath><clipPath id="clip613d46x4y4plot" class="plotclip"><rect width="351.5" height="215.99999999999994"/></clipPath><clipPath id="clip613d46x5y5plot" class="plotclip"><rect width="351.5" height="216"/></clipPath><clipPath class="axesclip" id="clip613d46x"><rect x="80" y="0" width="351.5" height="900"/></clipPath><clipPath class="axesclip" id="clip613d46y"><rect x="0" y="100" width="900" height="216.00000000000003"/></clipPath><clipPath class="axesclip" id="clip613d46xy"><rect x="80" y="100" width="351.5" height="216.00000000000003"/></clipPath><clipPath class="axesclip" id="clip613d46y2"><rect x="0" y="100" width="900" height="216.00000000000003"/></clipPath><clipPath class="axesclip" id="clip613d46xy2"><rect x="80" y="100" width="351.5" height="216.00000000000003"/></clipPath><clipPath class="axesclip" id="clip613d46y3"><rect x="0" y="352.00000000000006" width="900" height="215.99999999999994"/></clipPath><clipPath class="axesclip" id="clip613d46xy3"><rect x="80" y="352.00000000000006" width="351.5" height="215.99999999999994"/></clipPath><clipPath class="axesclip" id="clip613d46y4"><rect x="0" y="352.00000000000006" width="900" height="215.99999999999994"/></clipPath><clipPath class="axesclip" id="clip613d46xy4"><rect x="80" y="352.00000000000006" width="351.5" height="215.99999999999994"/></clipPath><clipPath class="axesclip" id="clip613d46y5"><rect x="0" y="604" width="900" height="216"/></clipPath><clipPath class="axesclip" id="clip613d46xy5"><rect x="80" y="604" width="351.5" height="216"/></clipPath><clipPath class="axesclip" id="clip613d46x2"><rect x="468.5" y="0" width="351.5" height="900"/></clipPath><clipPath class="axesclip" id="clip613d46x2y"><rect x="468.5" y="100" width="351.5" height="216.00000000000003"/></clipPath><clipPath class="axesclip" id="clip613d46x2y2"><rect x="468.5" y="100" width="351.5" height="216.00000000000003"/></clipPath><clipPath class="axesclip" id="clip613d46x2y3"><rect x="468.5" y="352.00000000000006" width="351.5" height="215.99999999999994"/></clipPath><clipPath class="axesclip" id="clip613d46x2y4"><rect x="468.5" y="352.00000000000006" width="351.5" height="215.99999999999994"/></clipPath><clipPath class="axesclip" id="clip613d46x2y5"><rect x="468.5" y="604" width="351.5" height="216"/></clipPath><clipPath class="axesclip" id="clip613d46x3"><rect x="80" y="0" width="351.5" height="900"/></clipPath><clipPath class="axesclip" id="clip613d46x3y"><rect x="80" y="100" width="351.5" height="216.00000000000003"/></clipPath><clipPath class="axesclip" id="clip613d46x3y2"><rect x="80" y="100" width="351.5" height="216.00000000000003"/></clipPath><clipPath class="axesclip" id="clip613d46x3y3"><rect x="80" y="352.00000000000006" width="351.5" height="215.99999999999994"/></clipPath><clipPath class="axesclip" id="clip613d46x3y4"><rect x="80" y="352.00000000000006" width="351.5" height="215.99999999999994"/></clipPath><clipPath class="axesclip" id="clip613d46x3y5"><rect x="80" y="604" width="351.5" height="216"/></clipPath><clipPath class="axesclip" id="clip613d46x4"><rect x="468.5" y="0" width="351.5" height="900"/></clipPath><clipPath class="axesclip" id="clip613d46x4y"><rect x="468.5" y="100" width="351.5" height="216.00000000000003"/></clipPath><clipPath class="axesclip" id="clip613d46x4y2"><rect x="468.5" y="100" width="351.5" height="216.00000000000003"/></clipPath><clipPath class="axesclip" id="clip613d46x4y3"><rect x="468.5" y="352.00000000000006" width="351.5" height="215.99999999999994"/></clipPath><clipPath class="axesclip" id="clip613d46x4y4"><rect x="468.5" y="352.00000000000006" width="351.5" height="215.99999999999994"/></clipPath><clipPath class="axesclip" id="clip613d46x4y5"><rect x="468.5" y="604" width="351.5" height="216"/></clipPath><clipPath class="axesclip" id="clip613d46x5"><rect x="80" y="0" width="351.5" height="900"/></clipPath><clipPath class="axesclip" id="clip613d46x5y"><rect x="80" y="100" width="351.5" height="216.00000000000003"/></clipPath><clipPath class="axesclip" id="clip613d46x5y2"><rect x="80" y="100" width="351.5" height="216.00000000000003"/></clipPath><clipPath class="axesclip" id="clip613d46x5y3"><rect x="80" y="352.00000000000006" width="351.5" height="215.99999999999994"/></clipPath><clipPath class="axesclip" id="clip613d46x5y4"><rect x="80" y="352.00000000000006" width="351.5" height="215.99999999999994"/></clipPath><clipPath class="axesclip" id="clip613d46x5y5"><rect x="80" y="604" width="351.5" height="216"/></clipPath></g><g class="gradients"/><g class="patterns"/></defs><g class="bglayer"/><g class="layer-below"><g class="imagelayer"/><g class="shapelayer"/></g><g class="cartesianlayer"><g class="subplot xy"><g class="layer-subplot"><g class="shapelayer"/><g class="imagelayer"/></g><g class="minor-gridlayer"><g class="x"/><g class="y"/></g><g class="gridlayer"><g class="x"><path class="xgrid crisp" transform="translate(204.9,0)" d="M0,100v216.00000000000003" style="stroke: rgb(238, 238, 238); stroke-opacity: 1; stroke-width: 1px;"/><path class="xgrid crisp" transform="translate(306.6,0)" d="M0,100v216.00000000000003" style="stroke: rgb(238, 238, 238); stroke-opacity: 1; stroke-width: 1px;"/><path class="xgrid crisp" transform="translate(408.3,0)" d="M0,100v216.00000000000003" style="stroke: rgb(238, 238, 238); stroke-opacity: 1; stroke-width: 1px;"/></g><g class="y"><path class="ygrid crisp" transform="translate(0,258.88)" d="M80,0h351.5" style="stroke: rgb(238, 238, 238); stroke-opacity: 1; stroke-width: 1px;"/><path class="ygrid crisp" transform="translate(0,218.18)" d="M80,0h351.5" style="stroke: rgb(238, 238, 238); stroke-opacity: 1; stroke-width: 1px;"/><path class="ygrid crisp" transform="translate(0,177.48000000000002)" d="M80,0h351.5" style="stroke: rgb(238, 238, 238); stroke-opacity: 1; stroke-width: 1px;"/><path class="ygrid crisp" transform="translate(0,136.78)" d="M80,0h351.5" style="stroke: rgb(238, 238, 238); stroke-opacity: 1; stroke-width: 1px;"/></g></g><g class="zerolinelayer"><path class="xzl zl crisp" transform="translate(103.2,0)" d="M0,100v216.00000000000003" style="stroke: rgb(68, 68, 68); stroke-opacity: 1; stroke-width: 1px;"/><path class="yzl zl crisp" transform="translate(0,299.58000000000004)" d="M80,0h351.5" style="stroke: rgb(68, 68, 68); stroke-opacity: 1; stroke-width: 1px;"/></g><g class="layer-between"><g class="shapelayer"/><g class="imagelayer"/></g><path class="xlines-below"/><path class="ylines-below"/><g class="overlines-below"/><g class="xaxislayer-below"/><g class="yaxislayer-below"/><g class="overaxes-below"/><g class="overplot"><g class="xy" transform="translate(80,100)" clip-path="url(#clip613d46xyplot)"><g class="scatterlayer mlayer"><g class="trace scatter trace2095de" style="stroke-miterlimit: 2; opacity: 1;"><g class="fills"/><g class="errorbars"/><g class="lines"><path class="js-line" d="M23.2,199.58L328.3,16.43" style="vector-effect: none; fill: none; stroke: rgb(31, 119, 180); stroke-opacity: 1; stroke-width: 3px; opacity: 1;"/></g><g class="points"><path class="point" transform="translate(23.2,199.58)" d="M4.5,0A4.5,4.5 0 1,1 0,-4.5A4.5,4.5 0 0,1 4.5,0Z" style="opacity: 1; stroke-width: 0px; fill: rgb(31, 119, 180); fill-opacity: 1;"/><path class="point" transform="translate(124.9,138.53)" d="M4.5,0A4.5,4.5 0 1,1 0,-4.5A4.5,4.5 0 0,1 4.5,0Z" style="opacity: 1; stroke-width: 0px; fill: rgb(31, 119, 180); fill-opacity: 1;"/><path class="point" transform="translate(226.6,77.48)" d="M4.5,0A4.5,4.5 0 1,1 0,-4.5A4.5,4.5 0 0,1 4.5,0Z" style="opacity: 1; stroke-width: 0px; fill: rgb(31, 119, 180); fill-opacity: 1;"/><path class="point" transform="translate(328.3,16.43)" d="M4.5,0A4.5,4.5 0 1,1 0,-4.5A4.5,4.5 0 0,1 4.5,0Z" style="opacity: 1; stroke-width: 0px; fill: rgb(31, 119, 180); fill-opacity: 1;"/></g><g class="text"/></g></g></g></g><path class="xlines-above crisp" d="M0,0" style="fill: none;"/><path class="ylines-above crisp" d="M0,0" style="fill: none;"/><g class="overlines-above"/><g class="xaxislayer-above"><g class="xtick"><text text-anchor="middle" x="0" y="335" transform="translate(103.2,0)" style="font-family: 'Open Sans', verdana, arial, sans-serif; font-size: 18px; fill: rgb(68, 68, 68); fill-opacity: 1; white-space: pre; opacity: 1;">0</text></g><g class="xtick"><text text-anchor="middle" x="0" y="335" style="font-family: 'Open Sans', verdana, arial, sans-serif; font-size: 18px; fill: rgb(68, 68, 68); fill-opacity: 1; white-space: pre; opacity: 1;" transform="translate(204.9,0)">1</text></g><g class="xtick"><text text-anchor="middle" x="0" y="335" style="font-family: 'Open Sans', verdana, arial, sans-serif; font-size: 18px; fill: rgb(68, 68, 68); fill-opacity: 1; white-space: pre; opacity: 1;" transform="translate(306.6,0)">2</text></g><g class="xtick"><text text-anchor="middle" x="0" y="335" style="font-family: 'Open Sans', verdana, arial, sans-serif; font-size: 18px; fill: rgb(68, 68, 68); fill-opacity: 1; white-space: pre; opacity: 1;" transform="translate(408.3,0)">3</text></g></g><g class="yaxislayer-above"><g class="ytick"><text text-anchor="end" x="79" y="6.3" transform="translate(0,299.58000000000004)" style="font-family: 'Open Sans', verdana, arial, sans-serif; font-size: 18px; fill: rgb(68, 68, 68); fill-opacity: 1; white-space: pre; opacity: 1;">0</text></g><g class="ytick"><text text-anchor="end" x="79" y="6.3" style="font-family: 'Open Sans', verdana, arial, sans-serif; font-size: 18px; fill: rgb(68, 68, 68); fill-opacity: 1; white-space: pre; opacity: 1;" transform="translate(0,258.88)">2</text></g><g class="ytick"><text text-anchor="end" x="79" y="6.3" style="font-family: 'Open Sans', verdana, arial, sans-serif; font-size: 18px; fill: rgb(68, 68, 68); fill-opacity: 1; white-space: pre; opacity: 1;" transform="translate(0,218.18)">4</text></g><g class="ytick"><text text-anchor="end" x="79" y="6.3" style="font-family: 'Open Sans', verdana, arial, sans-serif; font-size: 18px; fill: rgb(68, 68, 68); fill-opacity: 1; white-space: pre; opacity: 1;" transform="translate(0,177.48000000000002)">6</text></g><g class="ytick"><text text-anchor="end" x="79" y="6.3" style="font-family: 'Open Sans', verdana, arial, sans-serif; font-size: 18px; fill: rgb(68, 68, 68); fill-opacity: 1; white-space: pre; opacity: 1;" transform="translate(0,136.78)">8</text></g></g><g class="overaxes-above"/></g><g class="subplot x2y2"><g class="layer-subplot"><g class="shapelayer"/><g class="imagelayer"/></g><g class="minor-gridlayer"><g class="x2"/><g class="y2"/></g><g class="gridlayer"><g class="x2"><path class="x2grid crisp" transform="translate(585.67,0)" d="M0,100v216.00000000000003" style="stroke: rgb(238, 238, 238); stroke-opacity: 1; stroke-width: 1px;"/><path class="x2grid crisp" transform="translate(702.83,0)" d="M0,100v216.00000000000003" style="stroke: rgb(238, 238, 238); stroke-opacity: 1; stroke-width: 1px;"/></g><g class="y2"><path class="y2grid crisp" transform="translate(0,256.6)" d="M468.5,0h351.5" style="stroke: rgb(238, 238, 238); stroke-opacity: 1; stroke-width: 1px;"/><path class="y2grid crisp" transform="translate(0,208)" d="M468.5,0h351.5" style="stroke: rgb(238, 238, 238); stroke-opacity: 1; stroke-width: 1px;"/><path class="y2grid crisp" transform="translate(0,159.4)" d="M468.5,0h351.5" style="stroke: rgb(238, 238, 238); stroke-opacity: 1; stroke-width: 1px;"/><path class="y2grid crisp" transform="translate(0,110.8)" d="M468.5,0h351.5" style="stroke: rgb(238, 238, 238); stroke-opacity: 1; stroke-width: 1px;"/></g></g><g class="zerolinelayer"><path class="x2zl zl crisp" transform="translate(468.5,0)" d="M0,100v216.00000000000003" style="stroke: rgb(68, 68, 68); stroke-opacity: 1; stroke-width: 1px;"/><path class="y2zl zl crisp" transform="translate(0,305.2)" d="M468.5,0h351.5" style="stroke: rgb(68, 68, 68); stroke-opacity: 1; stroke-width: 1px;"/></g><g class="layer-between"><g class="shapelayer"/><g class="imagelayer"/></g><path class="xlines-below"/><path class="ylines-below"/><g class="overlines-below"/><g class="xaxislayer-below"/><g class="yaxislayer-below"/><g class="overaxes-below"/><g class="overplot"><g class="x2y2" transform="translate(468.5,100)" clip-path="url(#clip613d46x2y2plot)"><g class="scatterlayer mlayer"><g class="trace scatter trace9bc679" style="stroke-miterlimit: 2; opacity: 1;"><g class="fills"/><g class="errorbars"/><g class="lines"><path class="js-line" d="M0,205.2L117.17,83.7L234.33,156.6L351.5,10.8" style="vector-effect: none; fill: none; stroke: rgb(255, 127, 14); stroke-opacity: 1; stroke-width: 3px; opacity: 1;"/></g><g class="points"/><g class="text"/></g></g></g></g><path class="xlines-above crisp" d="M0,0" style="fill: none;"/><path class="ylines-above crisp" d="M0,0" style="fill: none;"/><g class="overlines-above"/><g class="xaxislayer-above"><g class="x2tick"><text text-anchor="middle" x="0" y="335" transform="translate(468.5,0)" style="font-family: 'Open Sans', verdana, arial, sans-serif; font-size: 18px; fill: rgb(68, 68, 68); fill-opacity: 1; white-space: pre; opacity: 1;">0</text></g><g class="x2tick"><text text-anchor="middle" x="0" y="335" style="font-family: 'Open Sans', verdana, arial, sans-serif; font-size: 18px; fill: rgb(68, 68, 68); fill-opacity: 1; white-space: pre; opacity: 1;" transform="translate(585.67,0)">1</text></g><g class="x2tick"><text text-anchor="middle" x="0" y="335" style="font-family: 'Open Sans', verdana, arial, sans-serif; font-size: 18px; fill: rgb(68, 68, 68); fill-opacity: 1; white-space: pre; opacity: 1;" transform="translate(702.83,0)">2</text></g><g class="x2tick"><text text-anchor="middle" x="0" y="335" style="font-family: 'Open Sans', verdana, arial, sans-serif; font-size: 18px; fill: rgb(68, 68, 68); fill-opacity: 1; white-space: pre; opacity: 1;" transform="translate(820,0)">3</text></g></g><g class="yaxislayer-above"><g class="y2tick"><text text-anchor="end" x="467.5" y="6.3" transform="translate(0,305.2)" style="font-family: 'Open Sans', verdana, arial, sans-serif; font-size: 18px; fill: rgb(68, 68, 68); fill-opacity: 1; white-space: pre; opacity: 1;">0</text></g><g class="y2tick"><text text-anchor="end" x="467.5" y="6.3" style="font-family: 'Open Sans', verdana, arial, sans-serif; font-size: 18px; fill: rgb(68, 68, 68); fill-opacity: 1; white-space: pre; opacity: 1;" transform="translate(0,256.6)">2</text></g><g class="y2tick"><text text-anchor="end" x="467.5" y="6.3" style="font-family: 'Open Sans', verdana, arial, sans-serif; font-size: 18px; fill: rgb(68, 68, 68); fill-opacity: 1; white-space: pre; opacity: 1;" transform="translate(0,208)">4</text></g><g class="y2tick"><text text-anchor="end" x="467.5" y="6.3" style="font-family: 'Open Sans', verdana, arial, sans-serif; font-size: 18px; fill: rgb(68, 68, 68); fill-opacity: 1; white-space: pre; opacity: 1;" transform="translate(0,159.4)">6</text></g><g class="y2tick"><text text-anchor="end" x="467.5" y="6.3" style="font-family: 'Open Sans', verdana, arial, sans-serif; font-size: 18px; fill: rgb(68, 68, 68); fill-opacity: 1; white-space: pre; opacity: 1;" transform="translate(0,110.8)">8</text></g></g><g class="overaxes-above"/></g><g class="subplot x3y3"><g class="layer-subplot"><g class="shapelayer"/><g class="imagelayer"/></g><g class="minor-gridlayer"><g class="x3"/><g class="y3"/></g><g class="gridlayer"><g class="x3"><path class="x3grid crisp" transform="translate(204.9,0)" d="M0,352.00000000000006v215.99999999999994" style="stroke: rgb(238, 238, 238); stroke-opacity: 1; stroke-width: 1px;"/><path class="x3grid crisp" transform="translate(306.6,0)" d="M0,352.00000000000006v215.99999999999994" style="stroke: rgb(238, 238, 238); stroke-opacity: 1; stroke-width: 1px;"/><path class="x3grid crisp" transform="translate(408.3,0)" d="M0,352.00000000000006v215.99999999999994" style="stroke: rgb(238, 238, 238); stroke-opacity: 1; stroke-width: 1px;"/></g><g class="y3"><path class="y3grid crisp" transform="translate(0,521.0500000000001)" d="M80,0h351.5" style="stroke: rgb(238, 238, 238); stroke-opacity: 1; stroke-width: 1px;"/><path class="y3grid crisp" transform="translate(0,460.00000000000006)" d="M80,0h351.5" style="stroke: rgb(238, 238, 238); stroke-opacity: 1; stroke-width: 1px;"/><path class="y3grid crisp" transform="translate(0,398.95000000000005)" d="M80,0h351.5" style="stroke: rgb(238, 238, 238); stroke-opacity: 1; stroke-width: 1px;"/></g></g><g class="zerolinelayer"><path class="x3zl zl crisp" transform="translate(103.2,0)" d="M0,352.00000000000006v215.99999999999994" style="stroke: rgb(68, 68, 68); stroke-opacity: 1; stroke-width: 1px;"/></g><g class="layer-between"><g class="shapelayer"/><g class="imagelayer"/></g><path class="xlines-below"/><path class="ylines-below"/><g class="overlines-below"/><g class="xaxislayer-below"/><g class="yaxislayer-below"/><g class="overaxes-below"/><g class="overplot"><g class="x3y3" transform="translate(80,352.00000000000006)" clip-path="url(#clip613d46x3y3plot)"><g class="scatterlayer mlayer"><g class="trace scatter trace17fca9" style="stroke-miterlimit: 2; opacity: 1;"><g class="fills"/><g class="errorbars"/><g class="lines"><path class="js-line" d="M23.2,77.47L124.9,138.52L226.6,16.42L328.3,199.57" style="vector-effect: none; fill: none; stroke: rgb(44, 160, 44); stroke-opacity: 1; stroke-width: 3px; opacity: 1;"/></g><g class="points"><path class="point" transform="translate(23.2,77.47)" d="M4.5,0A4.5,4.5 0 1,1 0,-4.5A4.5,4.5 0 0,1 4.5,0Z" style="opacity: 1; stroke-width: 0px; fill: rgb(44, 160, 44); fill-opacity: 1;"/><path class="point" transform="translate(124.9,138.52)" d="M4.5,0A4.5,4.5 0 1,1 0,-4.5A4.5,4.5 0 0,1 4.5,0Z" style="opacity: 1; stroke-width: 0px; fill: rgb(44, 160, 44); fill-opacity: 1;"/><path class="point" transform="translate(226.6,16.42)" d="M4.5,0A4.5,4.5 0 1,1 0,-4.5A4.5,4.5 0 0,1 4.5,0Z" style="opacity: 1; stroke-width: 0px; fill: rgb(44, 160, 44); fill-opacity: 1;"/><path class="point" transform="translate(328.3,199.57)" d="M4.5,0A4.5,4.5 0 1,1 0,-4.5A4.5,4.5 0 0,1 4.5,0Z" style="opacity: 1; stroke-width: 0px; fill: rgb(44, 160, 44); fill-opacity: 1;"/></g><g class="text"/></g></g></g></g><path class="xlines-above crisp" d="M0,0" style="fill: none;"/><path class="ylines-above crisp" d="M0,0" style="fill: none;"/><g class="overlines-above"/><g class="xaxislayer-above"><g class="x3tick"><text text-anchor="middle" x="0" y="587" transform="translate(103.2,0)" style="font-family: 'Open Sans', verdana, arial, sans-serif; font-size: 18px; fill: rgb(68, 68, 68); fill-opacity: 1; white-space: pre; opacity: 1;">0</text></g><g class="x3tick"><text text-anchor="middle" x="0" y="587" style="font-family: 'Open Sans', verdana, arial, sans-serif; font-size: 18px; fill: rgb(68, 68, 68); fill-opacity: 1; white-space: pre; opacity: 1;" transform="translate(204.9,0)">1</text></g><g class="x3tick"><text text-anchor="middle" x="0" y="587" style="font-family: 'Open Sans', verdana, arial, sans-serif; font-size: 18px; fill: rgb(68, 68, 68); fill-opacity: 1; white-space: pre; opacity: 1;" transform="translate(306.6,0)">2</text></g><g class="x3tick"><text text-anchor="middle" x="0" y="587" style="font-family: 'Open Sans', verdana, arial, sans-serif; font-size: 18px; fill: rgb(68, 68, 68); fill-opacity: 1; white-space: pre; opacity: 1;" transform="translate(408.3,0)">3</text></g></g><g class="yaxislayer-above"><g class="y3tick"><text text-anchor="end" x="79" y="6.3" transform="translate(0,521.0500000000001)" style="font-family: 'Open Sans', verdana, arial, sans-serif; font-size: 18px; fill: rgb(68, 68, 68); fill-opacity: 1; white-space: pre; opacity: 1;">2</text></g><g class="y3tick"><text text-anchor="end" x="79" y="6.3" style="font-family: 'Open Sans', verdana, arial, sans-serif; font-size: 18px; fill: rgb(68, 68, 68); fill-opacity: 1; white-space: pre; opacity: 1;" transform="translate(0,460.00000000000006)">4</text></g><g class="y3tick"><text text-anchor="end" x="79" y="6.3" style="font-family: 'Open Sans', verdana, arial, sans-serif; font-size: 18px; fill: rgb(68, 68, 68); fill-opacity: 1; white-space: pre; opacity: 1;" transform="translate(0,398.95000000000005)">6</text></g></g><g class="overaxes-above"/></g><g class="subplot x4y4"><g class="layer-subplot"><g class="shapelayer"/><g class="imagelayer"/></g><g class="minor-gridlayer"><g class="x4"/><g class="y4"/></g><g class="gridlayer"><g class="x4"><path class="x4grid crisp" transform="translate(585.67,0)" d="M0,352.00000000000006v215.99999999999994" style="stroke: rgb(238, 238, 238); stroke-opacity: 1; stroke-width: 1px;"/><path class="x4grid crisp" transform="translate(702.83,0)" d="M0,352.00000000000006v215.99999999999994" style="stroke: rgb(238, 238, 238); stroke-opacity: 1; stroke-width: 1px;"/></g><g class="y4"><path class="y4grid crisp" transform="translate(0,510.98)" d="M468.5,0h351.5" style="stroke: rgb(238, 238, 238); stroke-opacity: 1; stroke-width: 1px;"/><path class="y4grid crisp" transform="translate(0,453.96000000000004)" d="M468.5,0h351.5" style="stroke: rgb(238, 238, 238); stroke-opacity: 1; stroke-width: 1px;"/><path class="y4grid crisp" transform="translate(0,396.94000000000005)" d="M468.5,0h351.5" style="stroke: rgb(238, 238, 238); stroke-opacity: 1; stroke-width: 1px;"/></g></g><g class="zerolinelayer"><path class="x4zl zl crisp" transform="translate(468.5,0)" d="M0,352.00000000000006v215.99999999999994" style="stroke: rgb(68, 68, 68); stroke-opacity: 1; stroke-width: 1px;"/><path class="y4zl zl crisp" transform="translate(0,568)" d="M468.5,0h351.5" style="stroke: rgb(68, 68, 68); stroke-opacity: 1; stroke-width: 1px;"/></g><g class="layer-between"><g class="shapelayer"/><g class="imagelayer"/></g><path class="xlines-below"/><path class="ylines-below"/><g class="overlines-below"/><g class="xaxislayer-below"/><g class="yaxislayer-below"/><g class="overaxes-below"/><g class="overplot"><g class="x4y4" transform="translate(468.5,352.00000000000006)" clip-path="url(#clip613d46x4y4plot)"><g class="scatterlayer mlayer"><g class="trace scatter trace1f15d7" style="stroke-miterlimit: 2;"><g class="fills"><g><path class="js-fill" d="M351.5,216L0,216L0,187.49L351.5,16.43" style="fill: rgb(214, 39, 40); fill-opacity: 0.5; stroke-width: 0;"/></g></g><g class="errorbars"/><g class="lines"><path class="js-line" d="M0,187.49L351.5,16.43" style="vector-effect: none; fill: none; stroke: rgb(214, 39, 40); stroke-opacity: 1; stroke-width: 3px; opacity: 1;"/></g><g class="points"><path class="point" transform="translate(0,187.49)" d="M4.5,0A4.5,4.5 0 1,1 0,-4.5A4.5,4.5 0 0,1 4.5,0Z" style="opacity: 1; stroke-width: 0px; fill: rgb(214, 39, 40); fill-opacity: 1;"/><path class="point" transform="translate(117.17,130.47)" d="M4.5,0A4.5,4.5 0 1,1 0,-4.5A4.5,4.5 0 0,1 4.5,0Z" style="opacity: 1; stroke-width: 0px; fill: rgb(214, 39, 40); fill-opacity: 1;"/><path class="point" transform="translate(234.33,73.45)" d="M4.5,0A4.5,4.5 0 1,1 0,-4.5A4.5,4.5 0 0,1 4.5,0Z" style="opacity: 1; stroke-width: 0px; fill: rgb(214, 39, 40); fill-opacity: 1;"/><path class="point" transform="translate(351.5,16.43)" d="M4.5,0A4.5,4.5 0 1,1 0,-4.5A4.5,4.5 0 0,1 4.5,0Z" style="opacity: 1; stroke-width: 0px; fill: rgb(214, 39, 40); fill-opacity: 1;"/></g><g class="text"/></g></g></g></g><path class="xlines-above crisp" d="M0,0" style="fill: none;"/><path class="ylines-above crisp" d="M0,0" style="fill: none;"/><g class="overlines-above"/><g class="xaxislayer-above"><g class="x4tick"><text text-anchor="middle" x="0" y="587" transform="translate(468.5,0)" style="font-family: 'Open Sans', verdana, arial, sans-serif; font-size: 18px; fill: rgb(68, 68, 68); fill-opacity: 1; white-space: pre; opacity: 1;">0</text></g><g class="x4tick"><text text-anchor="middle" x="0" y="587" style="font-family: 'Open Sans', verdana, arial, sans-serif; font-size: 18px; fill: rgb(68, 68, 68); fill-opacity: 1; white-space: pre; opacity: 1;" transform="translate(585.67,0)">1</text></g><g class="x4tick"><text text-anchor="middle" x="0" y="587" style="font-family: 'Open Sans', verdana, arial, sans-serif; font-size: 18px; fill: rgb(68, 68, 68); fill-opacity: 1; white-space: pre; opacity: 1;" transform="translate(702.83,0)">2</text></g><g class="x4tick"><text text-anchor="middle" x="0" y="587" style="font-family: 'Open Sans', verdana, arial, sans-serif; font-size: 18px; fill: rgb(68, 68, 68); fill-opacity: 1; white-space: pre; opacity: 1;" transform="translate(820,0)">3</text></g></g><g class="yaxislayer-above"><g class="y4tick"><text text-anchor="end" x="467.5" y="6.3" transform="translate(0,568)" style="font-family: 'Open Sans', verdana, arial, sans-serif; font-size: 18px; fill: rgb(68, 68, 68); fill-opacity: 1; white-space: pre; opacity: 1;">0</text></g><g class="y4tick"><text text-anchor="end" x="467.5" y="6.3" style="font-family: 'Open Sans', verdana, arial, sans-serif; font-size: 18px; fill: rgb(68, 68, 68); fill-opacity: 1; white-space: pre; opacity: 1;" transform="translate(0,510.98)">2</text></g><g class="y4tick"><text text-anchor="end" x="467.5" y="6.3" style="font-family: 'Open Sans', verdana, arial, sans-serif; font-size: 18px; fill: rgb(68, 68, 68); fill-opacity: 1; white-space: pre; opacity: 1;" transform="translate(0,453.96000000000004)">4</text></g><g class="y4tick"><text text-anchor="end" x="467.5" y="6.3" style="font-family: 'Open Sans', verdana, arial, sans-serif; font-size: 18px; fill: rgb(68, 68, 68); fill-opacity: 1; white-space: pre; opacity: 1;" transform="translate(0,396.94000000000005)">6</text></g></g><g class="overaxes-above"/></g><g class="subplot x5y5"><g class="layer-subplot"><g class="shapelayer"/><g class="imagelayer"/></g><g class="minor-gridlayer"><g class="x5"/><g class="y5"/></g><g class="gridlayer"><g class="x5"/><g class="y5"><path class="y5grid crisp" transform="translate(0,761.37)" d="M80,0h351.5" style="stroke: rgb(238, 238, 238); stroke-opacity: 1; stroke-width: 1px;"/><path class="y5grid crisp" transform="translate(0,702.74)" d="M80,0h351.5" style="stroke: rgb(238, 238, 238); stroke-opacity: 1; stroke-width: 1px;"/><path class="y5grid crisp" transform="translate(0,644.11)" d="M80,0h351.5" style="stroke: rgb(238, 238, 238); stroke-opacity: 1; stroke-width: 1px;"/></g></g><g class="zerolinelayer"><path class="y5zl zl crisp" transform="translate(0,820)" d="M80,0h351.5" style="stroke: rgb(68, 68, 68); stroke-opacity: 1; stroke-width: 1px;"/></g><g class="layer-between"><g class="shapelayer"/><g class="imagelayer"/></g><path class="xlines-below"/><path class="ylines-below"/><g class="overlines-below"/><g class="xaxislayer-below"/><g class="yaxislayer-below"/><g class="overaxes-below"/><g class="overplot"><g class="x5y5" transform="translate(80,604)" clip-path="url(#clip613d46x5y5plot)"><g class="barlayer mlayer"><g class="trace bars" style="opacity: 1;"><g class="points"><g class="point"><path d="M11.72,216V157.37H105.45V216Z" style="vector-effect: none; opacity: 1; stroke-width: 0px; fill: rgb(148, 103, 189); fill-opacity: 1;"/></g><g class="point"><path d="M128.88,216V69.43H222.62V216Z" style="vector-effect: none; opacity: 1; stroke-width: 0px; fill: rgb(148, 103, 189); fill-opacity: 1;"/></g><g class="point"><path d="M246.05,216V10.8H339.78V216Z" style="vector-effect: none; opacity: 1; stroke-width: 0px; fill: rgb(148, 103, 189); fill-opacity: 1;"/></g></g></g></g></g></g><path class="xlines-above crisp" d="M0,0" style="fill: none;"/><path class="ylines-above crisp" d="M0,0" style="fill: none;"/><g class="overlines-above"/><g class="xaxislayer-above"><g class="x5tick"><text text-anchor="middle" x="0" y="839" transform="translate(138.57999999999998,0)" style="font-family: 'Open Sans', verdana, arial, sans-serif; font-size: 18px; fill: rgb(68, 68, 68); fill-opacity: 1; white-space: pre; opacity: 1;">a</text></g><g class="x5tick"><text text-anchor="middle" x="0" y="839" transform="translate(255.75,0)" style="font-family: 'Open Sans', verdana, arial, sans-serif; font-size: 18px; fill: rgb(68, 68, 68); fill-opacity: 1; white-space: pre; opacity: 1;">b</text></g><g class="x5tick"><text text-anchor="middle" x="0" y="839" transform="translate(372.92,0)" style="font-family: 'Open Sans', verdana, arial, sans-serif; font-size: 18px; fill: rgb(68, 68, 68); fill-opacity: 1; white-space: pre; opacity: 1;">c</text></g></g><g class="yaxislayer-above"><g class="y5tick"><text text-anchor="end" x="79" y="6.3" transform="translate(0,820)" style="font-family: 'Open Sans', verdana, arial, sans-serif; font-size: 18px; fill: rgb(68, 68, 68); fill-opacity: 1; white-space: pre; opacity: 1;">0</text></g><g class="y5tick"><text text-anchor="end" x="79" y="6.3" style="font-family: 'Open Sans', verdana, arial, sans-serif; font-size: 18px; fill: rgb(68, 68, 68); fill-opacity: 1; white-space: pre; opacity: 1;" transform="translate(0,761.37)">2</text></g><g class="y5tick"><text text-anchor="end" x="79" y="6.3" style="font-family: 'Open Sans', verdana, arial, sans-serif; font-size: 18px; fill: rgb(68, 68, 68); fill-opacity: 1; white-space: pre; opacity: 1;" transform="translate(0,702.74)">4</text></g><g class="y5tick"><text text-anchor="end" x="79" y="6.3" style="font-family: 'Open Sans', verdana, arial, sans-serif; font-size: 18px; fill: rgb(68, 68, 68); fill-opacity: 1; white-space: pre; opacity: 1;" transform="translate(0,644.11)">6</text></g></g><g class="overaxes-above"/></g></g><g class="polarlayer"/><g class="smithlayer"/><g class="ternarylayer"/><g class="geolayer"/><g class="funnelarealayer"/><g class="pielayer"/><g class="iciclelayer"/><g class="treemaplayer"/><g class="sunburstlayer"/><g class="glimages"/><defs id="topdefs-613d46"><g class="clips"/></defs><g class="layer-above"><g class="imagelayer"/><g class="shapelayer"/></g><g class="infolayer"><g class="g-gtitle"/><g class="g-xtitle"/><g class="g-x2title"/><g class="g-x3title"/><g class="g-x4title"/><g class="g-x5title"/><g class="g-ytitle"/><g class="g-y2title"/><g class="g-y3title"/><g class="g-y4title"/><g class="g-y5title"/></g></svg>