<?xml version="1.0" standalone="no"?><!DOCTYPE svg PUBLIC "-//W3C//DTD SVG 1.1//EN" "http://www.w3.org/Graphics/SVG/1.1/DTD/svg11.dtd"><svg t="1728399576695" class="icon" viewBox="0 0 1024 1024" version="1.1" xmlns="http://www.w3.org/2000/svg" p-id="39491" xmlns:xlink="http://www.w3.org/1999/xlink" width="200" height="200"><path d="M188.472 473.016l114.272 0L302.744 302.2l171.408 0L474.152 187.336 302.744 187.336 302.744 16.52 188.472 16.52l0 170.816L17.072 187.336l0 114.864 171.408 0L188.472 473.016 188.472 473.016zM569.968 187.336l0 114.864 437.44 0L1007.408 187.336 569.968 187.336zM393.656 549.176 245.52 697.32 97.808 549.6l-80.8 80.8L164.72 778.12 16.584 926.256l81.224 81.224 148.136-148.136 147.712 147.712 80.8-80.8L326.744 778.536 474.88 630.4 393.656 549.176zM793.2 888.536c-31.352 0-56.768 25.416-56.768 56.768 0 31.352 25.416 56.76 56.768 56.76 31.352 0 56.768-25.416 56.768-56.76C849.968 913.952 824.552 888.536 793.2 888.536zM569.376 816.416l438.04 0L1007.416 701.552 569.376 701.552 569.376 816.416zM849.696 586.984c0-31.392-25.312-56.84-56.544-56.84s-56.536 25.448-56.536 56.84c0 31.392 25.312 56.84 56.536 56.84C824.384 643.824 849.696 618.376 849.696 586.984z" fill="#FFFFFF" p-id="39492"></path></svg>