<?xml version="1.0" standalone="no"?><!DOCTYPE svg PUBLIC "-//W3C//DTD SVG 1.1//EN" "http://www.w3.org/Graphics/SVG/1.1/DTD/svg11.dtd"><svg t="1729937165703" class="icon" viewBox="0 0 1024 1024" version="1.1" xmlns="http://www.w3.org/2000/svg" p-id="9000" xmlns:xlink="http://www.w3.org/1999/xlink" width="200" height="200"><path d="M345.6 350.208l-1.536 295.936-73.728 45.056 1.536-296.448 73.728-44.544z m0 0" fill="#FFFFFF" p-id="9001"></path><path d="M271.872 394.752l-1.536 296.448-101.888-61.44 0.512-295.936 102.912 60.928z m0 0" fill="#FFFFFF" p-id="9002"></path><path d="M345.6 350.208l-73.728 44.544L168.96 333.824l73.728-45.056 102.912 61.44z m0 0" fill="#FFFFFF" p-id="9003"></path><path d="M522.752 247.808l-0.512 492.032-85.504 49.664 1.536-492.032 84.48-49.664z m0 0" fill="#FFFFFF" p-id="9004"></path><path d="M438.272 297.472l-1.536 492.032-117.76-68.096 0.512-492.032 118.784 68.096z m0 0" fill="#FFFFFF" p-id="9005"></path><path d="M522.752 247.808l-84.48 49.664-118.272-68.096 85.504-49.664 117.248 68.096z m0 0" fill="#FFFFFF" p-id="9006"></path><path d="M734.208 126.976l-0.512 492.032-85.504 49.664 1.536-492.032 84.48-49.664z m0 0" fill="#FFFFFF" p-id="9007"></path><path d="M649.728 176.64l-1.536 492.032-117.76-68.096 0.512-492.032 118.784 68.096z m0 0" fill="#FFFFFF" p-id="9008"></path><path d="M734.208 126.976l-84.48 49.664-118.272-68.096 85.504-49.664 117.248 68.096z m0 0" fill="#FFFFFF" p-id="9009"></path><path d="M934.4 289.792l-1.536 446.976-73.728 45.056 1.536-447.488 73.728-44.544z m0 0" fill="#FFFFFF" p-id="9010"></path><path d="M860.16 334.336l-1.536 447.488-101.888-61.952 0.512-446.976 102.912 61.44z m0 0" fill="#FFFFFF" p-id="9011"></path><path d="M934.4 289.792L860.16 334.336l-102.4-60.928 73.728-45.056 102.912 61.44z m0 0" fill="#FFFFFF" p-id="9012"></path><path d="M692.736 448.512L691.2 849.92l-73.728 45.056 1.536-402.432 73.728-44.032z m0 0" fill="#FFFFFF" p-id="9013"></path><path d="M619.008 493.056l-1.536 402.432-101.888-61.952 0.512-401.408 102.912 60.928z m0 0" fill="#FFFFFF" p-id="9014"></path><path d="M692.736 448.512l-73.728 44.544-102.4-60.928 73.728-45.056 102.4 61.44z m0 0" fill="#FFFFFF" p-id="9015"></path><path d="M668.672 1011.2L92.672 679.936V24.576h22.528v642.048l563.712 325.12-10.24 19.456z m0 0" fill="#FFFFFF" p-id="9016"></path></svg>