<?xml version="1.0" standalone="no"?><!DOCTYPE svg PUBLIC "-//W3C//DTD SVG 1.1//EN" "http://www.w3.org/Graphics/SVG/1.1/DTD/svg11.dtd"><svg t="1728479429333" class="icon" viewBox="0 0 1024 1024" version="1.1" xmlns="http://www.w3.org/2000/svg" p-id="7746" xmlns:xlink="http://www.w3.org/1999/xlink" width="200" height="200"><path d="M975.7 335.7V95.5H0V927h664.5V532.7h311.2v-197zM622.3 489.8H353.4V335.7h268.9v154.1zM939 132.2v160.3H664.5V132.2H939z m-316.7 0v160.3H353.4V132.2h268.9z m5.5 758H353.4V730h274.4v160.2z m0-203.4H353.4V532.7h274.4v154.1z m36.7-190.9V335.7H939v160.2H664.5z" fill="#000000" p-id="7747"></path><path d="M1024 744H885.9V604.8H840V744H701.8v45.9H840V927h45.9V789.9H1024z" fill="#000000" p-id="7748"></path></svg>