<?xml version="1.0" standalone="no"?><!DOCTYPE svg PUBLIC "-//W3C//DTD SVG 1.1//EN" "http://www.w3.org/Graphics/SVG/1.1/DTD/svg11.dtd"><svg t="1728402821303" class="icon" viewBox="0 0 1024 1024" version="1.1" xmlns="http://www.w3.org/2000/svg" p-id="22712" xmlns:xlink="http://www.w3.org/1999/xlink" width="200" height="200"><path d="M632.6272 821.6576H75.9808a38.7072 38.7072 0 0 1-38.5024-38.5024V191.0784a38.5024 38.5024 0 0 1 38.5024-38.5024h796.8768a38.5024 38.5024 0 0 1 38.5024 38.5024V401.408h-40.96V193.536H78.4384v587.1616h554.1888z" p-id="22713" fill="#000000"></path><path d="M193.3312 539.648h40.96v140.9024h-40.96zM303.5136 462.848h40.96v217.7024h-40.96zM413.696 504.0128h40.96v176.7424h-40.96zM523.8784 437.248h40.96v243.3024h-40.96zM464.0768 815.9232h40.96v79.4624h-40.96zM801.5872 819.2a193.3312 193.3312 0 1 1 193.1264-193.1264A193.3312 193.3312 0 0 1 801.5872 819.2z m0-345.4976a152.3712 152.3712 0 1 0 152.1664 152.3712 152.576 152.576 0 0 0-152.1664-152.7808z" p-id="22714" fill="#000000"></path><path d="M971.3664 653.1072h-144.5888a37.4784 37.4784 0 0 1-37.4784-37.4784v-168.96h40.96v165.4784h141.1072zM199.4752 419.84l-24.7808-32.768 115.712-87.04a40.96 40.96 0 0 1 48.7424-1.024l88.4736 61.44 118.784-88.6784 24.576 32.768-117.9648 88.6784a40.96 40.96 0 0 1-48.7424 1.024l-88.4736-61.44zM234.2912 882.688h480.256v40.96H234.2912z" p-id="22715" fill="#000000"></path></svg>