<?xml version="1.0" standalone="no"?><!DOCTYPE svg PUBLIC "-//W3C//DTD SVG 1.1//EN" "http://www.w3.org/Graphics/SVG/1.1/DTD/svg11.dtd"><svg t="1728822522672" class="icon" viewBox="0 0 1115 1024" version="1.1" xmlns="http://www.w3.org/2000/svg" p-id="32817" xmlns:xlink="http://www.w3.org/1999/xlink" width="217.7734375" height="200"><path d="M564.332484 1016.398518a32.651474 32.651474 0 0 1-32.651474-32.651474V335.314861a32.651474 32.651474 0 0 1 8.314595-21.120284L753.155718 72.828567H113.053302l212.522863 240.72876a35.200474 35.200474 0 0 1 8.390458 21.757534v374.460217l69.794043 69.126448a32.651474 32.651474 0 1 1-46.094414 46.094414l-78.093465-78.730716a35.200474 35.200474 0 0 1-9.604268-23.047207V347.452956L17.040975 65.242258a33.288724 33.288724 0 0 1-5.765595-38.401896A33.925974 33.925974 0 0 1 41.362682 7.586309h784.773329a33.288724 33.288724 0 0 1 29.450052 19.208535 33.288724 33.288724 0 0 1-5.113173 38.401896L594.419786 351.321974v635.626492a32.651474 32.651474 0 0 1-30.087302 29.450052z" fill="#FFFFFF" p-id="32818"></path><path d="M564.590419 1023.984827h-0.28828a40.283301 40.283301 0 0 1-40.237783-40.237783V335.163135a40.252956 40.252956 0 0 1 10.25669-26.036212L736.344457 80.414876H129.879736l201.492369 228.196177a42.953682 42.953682 0 0 1 10.120136 26.445874v371.562246l67.381598 66.75952a40.237783 40.237783 0 1 1-56.806283 56.821455l-78.078293-78.730715a42.756438 42.756438 0 0 1-11.667743-28.008654V350.381271L11.487796 70.370603a40.844688 40.844688 0 0 1-7.009749-47.035116A41.284694 41.284694 0 0 1 41.256473 0h785.046437a40.617099 40.617099 0 0 1 36.065313 23.396177 40.859861 40.859861 0 0 1-6.311809 46.913736L602.006095 354.219944v633.456808a40.131575 40.131575 0 0 1-37.081878 36.292903z m-25.338272-688.57893v648.341147a23.821011 23.821011 0 0 0 47.550985 2.822107V348.424004L844.919712 60.007705A25.687243 25.687243 0 0 0 848.879766 30.345236l-0.182072-0.34897A25.535516 25.535516 0 0 0 826.044975 15.172618H41.423372a26.187939 26.187939 0 0 0-23.305141 14.914684l-0.091036 0.166899a25.687243 25.687243 0 0 0 4.445577 29.647296l0.212417 0.227589 254.778604 284.456245v378.511306a27.598992 27.598992 0 0 0 7.464928 17.903689l78.305882 78.897614a25.065165 25.065165 0 1 0 35.382546-35.382545l-0.303452-0.28828-72.024419-71.311305V335.436242a27.720373 27.720373 0 0 0-6.478708-16.917469L96.242041 65.242258h673.74011L545.685337 319.216714a25.110683 25.110683 0 0 0-6.418018 16.189183z" fill="#FFFFFF" p-id="32819"></path><path d="M725.374654 496.205304a28.418314 28.418314 0 0 0 38.052926-11.531189c15.627797-29.010046 34.775641-41.78539 60.189776-41.785391s44.62267 12.775344 60.584265 42.483331c26.400356 46.24614 63.724996 71.159579 109.864928 71.159579 43.818521 0 79.747281-22.500993 105.874529-64.377419l4.035917-6.766987a28.418314 28.418314 0 0 0-48.658587-29.359016l-0.652422 1.153119c-16.887124 29.571433-36.414284 42.483331-60.584265 42.48333s-43.69714-12.957416-60.189776-41.84608c-25.110683-46.655801-62.738776-71.766484-110.274589-71.766484a119.863684 119.863684 0 0 0-106.390398 64.953978l-3.838673 6.812506a28.418314 28.418314 0 0 0 11.986369 38.386723z m0 429.870618a28.418314 28.418314 0 0 0 38.052926-11.470499c15.612624-29.040391 34.775641-41.846081 60.189776-41.846081s44.62267 12.80569 60.584265 42.483331c26.400356 46.24614 63.724996 71.159579 109.864928 71.159579 43.818521 0 79.747281-22.500993 105.874529-64.377419l4.035917-6.78216a28.418314 28.418314 0 0 0-48.658587-29.343844l-0.652422 1.183465c-16.887124 29.541088-36.414284 42.483331-60.584265 42.483331s-43.69714-12.957416-60.189776-41.846081c-25.080338-46.670973-62.723603-71.781657-110.274589-71.781657a119.863684 119.863684 0 0 0-106.390398 64.923633l-3.838673 6.842851a28.418314 28.418314 0 0 0 11.986369 38.341206z m0-214.935309a28.418314 28.418314 0 0 0 38.052926-11.470499c15.612624-29.070736 34.775641-41.846081 60.189776-41.846081s44.62267 12.775344 60.584265 42.483331c26.400356 46.215795 63.724996 71.129234 109.864928 71.129234 43.864039 0 79.747281-22.470648 105.874529-64.331901l4.035917-6.797333a28.418314 28.418314 0 0 0-48.658587-29.343843l-0.652422 1.183464c-16.887124 29.541088-36.414284 42.483331-60.584265 42.483331s-43.69714-12.957416-60.189776-41.846081c-25.080338-46.670973-62.723603-71.812002-110.274589-71.812002a119.863684 119.863684 0 0 0-106.390398 64.953978l-3.838673 6.812506a28.418314 28.418314 0 0 0 11.986369 38.371551z" fill="#FFFFFF" p-id="32820"></path><path d="M702.539863 685.923722a36.095659 36.095659 0 0 1 4.11178-16.68988l0.106208-0.197244 3.929708-6.949059a127.586546 127.586546 0 0 1 112.929797-68.686443c49.842051 0 90.261905 26.187939 116.82916 75.711365 14.793303 25.884487 31.862498 37.931545 53.559342 37.931546s38.902593-12.274648 53.984176-38.629486l0.864839-1.517262a36.004623 36.004623 0 0 1 49.037902-11.516017 35.98945 35.98945 0 0 1 12.669136 48.704104v0.106208l-4.111779 6.933887c-27.796236 44.425426-66.622966 67.897466-112.368411 67.897466-48.173063 0-88.441191-25.914832-116.449844-74.952734l-0.091036-0.182071c-14.292606-26.627945-30.921796-38.492932-53.908312-38.492932s-39.448807 11.667743-53.498652 37.840509a36.004623 36.004623 0 0 1-67.533323-17.402993z m17.509202-9.543577a20.57407 20.57407 0 0 0-2.336583 9.543577 20.832005 20.832005 0 0 0 39.054319 10.104964c16.796088-31.240421 38.037754-45.790962 66.850555-45.790962s50.206194 14.747785 67.229871 46.397866c25.520344 44.607497 60.250467 67.214698 103.173804 67.214699 40.79917 0 74.224448-20.422344 99.380649-60.690473l4.020744-6.660779a20.832005 20.832005 0 0 0-35.57979-21.636154l-0.576559 1.062084c-17.827826 31.164558-39.797777 46.306831-67.169181 46.30683s-49.235146-14.929856-66.75952-45.66958l-0.091036-0.166899c-24.169981-45.001985-59.021485-67.806431-103.583464-67.806431a111.761505 111.761505 0 0 0-99.805482 61.191169z m-17.433339-205.361387a36.21704 36.21704 0 0 1 4.11178-16.68988l0.106208-0.197244 3.914536-6.949059a127.541028 127.541028 0 0 1 112.869106-68.716787c49.826878 0 90.246733 26.187939 116.82916 75.711364 14.793303 25.884487 31.862498 37.931545 53.559342 37.931546s38.993629-12.289821 54.075211-38.690177l0.834494-1.517262a36.004623 36.004623 0 0 1 48.977212-11.455326 35.98945 35.98945 0 0 1 12.669136 48.704104v0.121381l-4.111779 6.888369c-27.735546 44.440599-66.562276 67.942984-112.277375 67.942984-48.173063 0-88.441191-25.930004-116.449844-74.983079l-0.091036-0.166899c-14.307779-26.5976-30.921796-38.462587-53.908312-38.462587s-39.448807 11.667743-53.498652 37.84051a36.004623 36.004623 0 0 1-67.609187-17.311958z m17.509202-9.543576a20.57407 20.57407 0 0 0-2.336583 9.543576 20.832005 20.832005 0 0 0 39.054319 10.104964c16.796088-31.240421 38.037754-45.790962 66.850555-45.790962s50.191021 14.732612 67.229871 46.367522c25.505171 44.62267 60.235294 67.245044 103.173804 67.245043 40.783998 0 74.224448-20.437517 99.395822-60.690472l3.929708-6.691125a20.832005 20.832005 0 0 0-35.610135-21.605808l-0.546214 0.971047c-17.827826 31.194903-39.797777 46.352348-67.184354 46.352349s-49.235146-14.929856-66.75952-45.669581l-0.151726-0.151726c-24.154808-45.062676-59.006312-67.821603-103.553119-67.821603a111.715988 111.715988 0 0 0-99.759964 61.175996z m-17.509202 439.399022a36.110831 36.110831 0 0 1 4.096607-16.68988l0.106209-0.197244 3.929708-6.994577a127.571374 127.571374 0 0 1 112.929797-68.656098c49.857223 0 90.277078 26.172766 116.82916 75.68102 14.793303 25.884487 31.862498 37.931545 53.559342 37.931545s38.902593-12.274648 53.984175-38.629486l0.864839-1.517261a36.004623 36.004623 0 0 1 48.977212-11.485672 35.98945 35.98945 0 0 1 12.669136 48.704104v0.106208l-4.111779 6.933887c-27.735546 44.440599-66.562276 67.942984-112.277375 67.942984-48.173063 0-88.441191-25.930004-116.449844-74.983079l-0.091036-0.166899c-14.307779-26.627945-30.936968-38.492932-53.908312-38.492932s-39.448807 11.667743-53.498652 37.84051a35.98945 35.98945 0 0 1-67.518151-17.387821z m17.433339-9.573922a20.589243 20.589243 0 0 0-2.321411 9.528404 20.816832 20.816832 0 0 0 39.054319 10.089791c16.811261-31.240421 38.052926-45.790962 66.850556-45.790962s50.191021 14.747785 67.229871 46.397867c25.505171 44.62267 60.235294 67.245044 103.173804 67.245043 40.783998 0 74.224448-20.437517 99.380649-60.690472l4.005571-6.645607a20.832005 20.832005 0 0 0-35.594962-21.651326l-0.57656 1.062083c-17.827826 31.164558-39.797777 46.306831-67.169181 46.306831s-49.235146-14.929856-66.75952-45.669581l-0.151726-0.182071c-24.154808-44.97164-59.006312-67.776085-103.583464-67.776086a111.73116 111.73116 0 0 0-99.729619 61.145651z" fill="#FFFFFF" p-id="32821"></path></svg>