<?xml version="1.0" standalone="no"?><!DOCTYPE svg PUBLIC "-//W3C//DTD SVG 1.1//EN" "http://www.w3.org/Graphics/SVG/1.1/DTD/svg11.dtd"><svg t="1728399623934" class="icon" viewBox="0 0 1280 1024" version="1.1" xmlns="http://www.w3.org/2000/svg" p-id="45003" xmlns:xlink="http://www.w3.org/1999/xlink" width="250" height="200"><path d="M1157.98 198.64c-5.02-7.16-15.2-8.76-22.32-3.64l-25.32 18.22c-6.88 4.94-8.34 14.36-3.48 21.26 72.34 103.28 110.48 221.04 110.48 341.52 0 120.48-38.14 238.24-110.48 341.52-4.84 6.92-3.4 16.32 3.48 21.26l25.32 18.22c7.12 5.12 17.3 3.52 22.32-3.64C1237.86 839.54 1280 709.42 1280 576s-42.14-263.54-122.02-377.36z m-540.32 14.58l-25.32-18.22c-7.12-5.12-17.3-3.52-22.32 3.64C490.14 312.46 448 442.58 448 576s42.14 263.54 122.02 377.36c5.02 7.16 15.2 8.76 22.32 3.64l25.32-18.22c6.88-4.94 8.34-14.36 3.48-21.26-72.34-103.28-110.46-221.04-110.46-341.52 0-120.48 38.14-238.24 110.48-341.52 4.84-6.92 3.38-16.32-3.5-21.26zM448 80c0-8.84-7.16-16-16-16h-112c-88.36 0-160 71.64-160 160v160H16c-8.84 0-16 7.16-16 16v32c0 8.84 7.16 16 16 16h144v288c0 53.02-42.98 96-96 96H16c-8.84 0-16 7.16-16 16v32c0 8.84 7.16 16 16 16h48c88.36 0 160-71.64 160-160V448h144c8.84 0 16-7.16 16-16v-32c0-8.84-7.16-16-16-16h-144v-160c0-53.02 42.98-96 96-96h112c8.84 0 16-7.16 16-16V80z m571.32 363.3l-22.62-22.62c-6.24-6.24-16.38-6.24-22.62 0L864 530.74l-110.06-110.06c-6.24-6.24-16.38-6.24-22.62 0l-22.62 22.62c-6.24 6.24-6.24 16.38 0 22.62L818.76 576l-110.06 110.06c-6.24 6.24-6.24 16.38 0 22.62l22.62 22.62c6.24 6.24 16.38 6.24 22.62 0L864 621.24l110.06 110.06c6.24 6.24 16.38 6.24 22.62 0l22.62-22.62c6.24-6.24 6.24-16.38 0-22.62L909.24 576l110.06-110.06a16.012 16.012 0 0 0 0.02-22.64z" fill="#000000" p-id="45004"></path></svg>