<?xml version="1.0" standalone="no"?><!DOCTYPE svg PUBLIC "-//W3C//DTD SVG 1.1//EN" "http://www.w3.org/Graphics/SVG/1.1/DTD/svg11.dtd"><svg t="1728402721197" class="icon" viewBox="0 0 1024 1024" version="1.1" xmlns="http://www.w3.org/2000/svg" p-id="17037" xmlns:xlink="http://www.w3.org/1999/xlink" width="200" height="200"><path d="M139.636364 46.545455v46.545454a46.545455 46.545455 0 0 0 41.099636 46.219636L186.181818 139.636364h465.454546a46.545455 46.545455 0 0 0 46.219636-41.099637L698.181818 93.090909V46.545455h46.545455a93.090909 93.090909 0 0 1 93.090909 93.090909v310.039272a325.818182 325.818182 0 0 0-271.36 574.370909L93.137455 1024a93.090909 93.090909 0 0 1-93.09091-93.090909V139.636364a93.090909 93.090909 0 0 1 93.09091-93.090909h46.545454z m628.363636 465.454545a256 256 0 1 1 0 512 256 256 0 0 1 0-512z m0 93.090909a23.272727 23.272727 0 0 0-22.900364 19.083636L744.727273 628.363636v186.181819a23.272727 23.272727 0 0 0 23.738182 23.272727h139.170909a23.272727 23.272727 0 0 0 4.189091-46.173091L907.636364 791.272727l-116.363637-0.046545V628.363636a23.272727 23.272727 0 0 0-19.083636-22.900363L768 605.090909z m-372.363636-93.090909h-279.272728a23.272727 23.272727 0 0 0-4.189091 46.173091L116.363636 558.545455h279.272728a23.272727 23.272727 0 0 0 0-46.545455z m186.181818-139.636364h-465.454546a23.272727 23.272727 0 0 0-4.189091 46.173091L116.363636 418.909091h465.454546a23.272727 23.272727 0 0 0 0-46.545455z m139.636363-139.636363h-605.090909a23.272727 23.272727 0 0 0-4.189091 46.173091L116.363636 279.272727h605.090909a23.272727 23.272727 0 0 0 0-46.545454zM558.545455 0a46.545455 46.545455 0 1 1 0 93.090909H279.272727a46.545455 46.545455 0 0 1 0-93.090909h279.272728z" fill="#000000" p-id="17038"></path></svg>