<?xml version="1.0" standalone="no"?><!DOCTYPE svg PUBLIC "-//W3C//DTD SVG 1.1//EN" "http://www.w3.org/Graphics/SVG/1.1/DTD/svg11.dtd"><svg t="1728822112312" class="icon" viewBox="0 0 1024 1024" version="1.1" xmlns="http://www.w3.org/2000/svg" p-id="20584" xmlns:xlink="http://www.w3.org/1999/xlink" width="200" height="200"><path d="M512 75.119691c170.798456 0 309.967568 134.951537 309.967568 301.533405 0 115.973931-172.906749 373.226255-309.967568 546.133004-134.951537-170.798456-309.967568-430.159073-309.967568-546.133004 0-166.58088 139.169112-301.533405 309.967568-301.533405M512 11.861004c-206.645375 0-373.226255 164.472587-373.226255 364.792093 0 202.427799 373.226255 647.346903 373.226255 647.346903s373.226255-444.919104 373.226255-647.346903c0-200.319506-166.58088-364.792093-373.226255-364.792093l0 0zM512 288.090934c23.195181 0 44.281081 18.977606 44.281081 44.281081s-18.977606 44.281081-44.281081 44.281081-44.281081-18.977606-44.281081-44.281081 21.0859-44.281081 44.281081-44.281081M512 224.832247c-59.041112 0-107.539768 48.498656-107.539768 107.539768s48.498656 107.539768 107.539768 107.539768c59.041112 0 107.539768-48.498656 107.539768-107.539768s-48.498656-107.539768-107.539768-107.539768l0 0z" fill="#000000" p-id="20585"></path></svg>