<?xml version="1.0" standalone="no"?><!DOCTYPE svg PUBLIC "-//W3C//DTD SVG 1.1//EN" "http://www.w3.org/Graphics/SVG/1.1/DTD/svg11.dtd"><svg t="1728822377479" class="icon" viewBox="0 0 1024 1024" version="1.1" xmlns="http://www.w3.org/2000/svg" p-id="32237" xmlns:xlink="http://www.w3.org/1999/xlink" width="200" height="200"><path d="M128 149.333333a21.333333 21.333333 0 0 1 21.333333-21.333333h725.333334a21.333333 21.333333 0 0 1 21.333333 21.333333v725.333334a21.333333 21.333333 0 0 1-21.333333 21.333333H149.333333a21.333333 21.333333 0 0 1-21.333333-21.333333V149.333333z m42.666667 21.333334v682.666666h682.666666V170.666667H170.666667z" fill="#000000" p-id="32238"></path><path d="M776.832 341.333333l-105.109333 105.109334a85.333333 85.333333 0 0 1-109.269334 9.578666l-125.354666-87.744a42.666667 42.666667 0 0 0-54.656 4.778667L277.333333 478.165333 247.168 448l105.109333-105.109333a85.333333 85.333333 0 0 1 109.290667-9.578667l125.354667 87.744a42.666667 42.666667 0 0 0 54.613333-4.778667L746.666667 311.168 776.832 341.333333zM776.832 576l-105.109333 105.109333a85.333333 85.333333 0 0 1-109.269334 9.578667l-125.354666-87.744a42.666667 42.666667 0 0 0-54.656 4.778667L277.333333 712.832 247.168 682.666667l105.109333-105.109334a85.333333 85.333333 0 0 1 109.290667-9.578666l125.354667 87.744a42.666667 42.666667 0 0 0 54.613333-4.778667L746.666667 545.834667 776.832 576z" fill="#000000" p-id="32239"></path><path d="M584.725333 317.269333l-133.973333 160.768-32.789333-27.306666 133.973333-160.768 32.789333 27.306666z" fill="#000000" p-id="32240"></path></svg>