<?xml version="1.0" standalone="no"?><!DOCTYPE svg PUBLIC "-//W3C//DTD SVG 1.1//EN" "http://www.w3.org/Graphics/SVG/1.1/DTD/svg11.dtd"><svg t="1728480085172" class="icon" viewBox="0 0 1024 1024" version="1.1" xmlns="http://www.w3.org/2000/svg" p-id="39614" xmlns:xlink="http://www.w3.org/1999/xlink" width="200" height="200"><path d="M264.034313 585.2256a38.630941 38.630941 0 0 1-39.414-39.414A38.108901 38.108901 0 0 1 264.034313 506.3976h506.378546a38.108901 38.108901 0 0 1 41.763179 39.414 49.332755 49.332755 0 0 1-46.200517 39.414z" p-id="39615" fill="#FFFFFF"></path><path d="M474.416327 1024a37.325841 37.325841 0 0 1-19.83751-6.003457l-10.179775-5.742437-148.259285-135.208292H150.49067A145.910107 145.910107 0 0 1 3.014444 728.003469V147.49528A145.910107 145.910107 0 0 1 150.49067 0.019054h722.241977A145.910107 145.910107 0 0 1 1020.991933 147.49528v580.508189a145.910107 145.910107 0 0 1-147.476226 147.476226H513.830327v102.319788a43.851338 43.851338 0 0 1-39.414 46.200517zM150.49067 78.325015A67.865166 67.865166 0 0 0 81.320405 147.49528v580.508189a67.865166 67.865166 0 0 0 68.648225 68.648225h141.733789a68.648226 68.648226 0 0 1 48.549696 18.010371l96.316331 81.699219 5.481417-37.064821a86.136557 86.136557 0 0 1 78.305961-69.170266h365.427817a67.865166 67.865166 0 0 0 68.648225-68.648225v-574.243712a80.39412 80.39412 0 0 0-1.305099-13.573033A68.126186 68.126186 0 0 0 886.30568 78.325015z" p-id="39616" fill="#FFFFFF"></path><path d="M264.034313 369.101149a38.108901 38.108901 0 0 1-39.414-39.414A38.630941 38.630941 0 0 1 264.034313 290.273149h506.378546a38.108901 38.108901 0 0 1 41.763179 39.414 49.332755 49.332755 0 0 1-46.200517 39.414z" p-id="39617" fill="#FFFFFF"></path></svg>