<?xml version="1.0" standalone="no"?><!DOCTYPE svg PUBLIC "-//W3C//DTD SVG 1.1//EN" "http://www.w3.org/Graphics/SVG/1.1/DTD/svg11.dtd"><svg t="1728480234002" class="icon" viewBox="0 0 1024 1024" version="1.1" xmlns="http://www.w3.org/2000/svg" p-id="58557" xmlns:xlink="http://www.w3.org/1999/xlink" width="200" height="200"><path d="M584.6 222.5l226.3 226.3L463.7 796c-12.1 12.1-28.2 18.7-45.3 18.7-17.1 0-33.2-6.7-45.3-18.7l-181-181 392.5-392.5m0-77.2c-8.2 0-16.4 3.1-22.6 9.4L124.3 592.3c-12.5 12.5-12.5 32.8 0 45.3L328 841.2c25 25 57.8 37.5 90.5 37.5s65.5-12.5 90.5-37.5l369.8-369.8c12.5-12.5 12.5-32.8 0-45.3L607.2 154.7c-6.2-6.3-14.4-9.4-22.6-9.4z" fill="#FFFFFF" p-id="58558"></path><path d="M282 434.6l-45.2 45.3 316.7 316.8 45.3-45.3L282 434.6zM865 815c-17.7 0-32 14.3-32 32s14.3 32 32 32 32-14.3 32-32-14.3-32-32-32z m-112 0c-17.7 0-32 14.3-32 32s14.3 32 32 32 32-14.3 32-32-14.3-32-32-32z m-112 0c-17.7 0-32 14.3-32 32s14.3 32 32 32 32-14.3 32-32-14.3-32-32-32z m-455 0c-17.7 0-32 14.3-32 32s14.3 32 32 32 32-14.3 32-32-14.3-32-32-32z" fill="#FFFFFF" p-id="58559"></path></svg>