<?xml version="1.0" standalone="no"?><!DOCTYPE svg PUBLIC "-//W3C//DTD SVG 1.1//EN" "http://www.w3.org/Graphics/SVG/1.1/DTD/svg11.dtd"><svg t="1728822203093" class="icon" viewBox="0 0 1024 1024" version="1.1" xmlns="http://www.w3.org/2000/svg" p-id="25166" xmlns:xlink="http://www.w3.org/1999/xlink" width="200" height="200"><path d="M512 85.312a512 512 0 0 1 393.984 839.04 42.688 42.688 0 0 1-65.6-54.528 426.688 426.688 0 1 0-657.856-1.344 42.688 42.688 0 0 1-65.92 54.208A512 512 0 0 1 512 85.312z" fill="#000000" p-id="25167"></path><path d="M736.448 431.936c2.304-4.032 2.176-7.424-0.448-10.176s-6.4-3.328-11.264-1.728l-235.968 119.68a64 64 0 1 0 68.736 104.832l1.344-1.6a64.64 64.64 0 0 0 4.352-5.12l173.248-205.888z" fill="#000000" p-id="25168"></path></svg>