<?xml version="1.0" standalone="no"?><!DOCTYPE svg PUBLIC "-//W3C//DTD SVG 1.1//EN" "http://www.w3.org/Graphics/SVG/1.1/DTD/svg11.dtd"><svg t="1728822275969" class="icon" viewBox="0 0 1024 1024" version="1.1" xmlns="http://www.w3.org/2000/svg" p-id="28027" xmlns:xlink="http://www.w3.org/1999/xlink" width="200" height="200"><path d="M58.88 788.992c23.552 1.536 43.52-15.872 46.08-39.424 5.12-52.736 17.408-147.968 40.96-241.664 15.872-62.976 45.568-154.624 90.112-209.92-20.48-24.064-32.768-54.784-32.768-89.088v-2.048c-20.992 17.408-40.448 39.936-57.856 67.584-33.28 52.224-61.44 123.904-84.48 212.48-25.6 99.84-37.888 198.144-43.008 253.44-2.048 25.6 16.384 47.104 40.96 48.64z m421.888-317.44v2.048c0.512 4.096 8.192 103.936 36.864 205.312 17.408 61.44 38.912 111.616 64 147.968 45.568 66.56 97.792 80.384 133.632 80.384 47.616 0 94.208-19.968 137.728-59.392 31.744-28.672 62.464-67.584 91.136-116.224 26.112-44.032 45.568-88.576 58.368-119.296 9.728-23.552-2.56-50.176-26.624-58.368-22.016-7.168-45.568 3.584-53.76 25.088-11.264 28.16-29.184 68.096-52.736 108.032-24.064 40.96-49.152 73.216-74.24 96.256-27.136 24.576-54.272 37.376-79.36 37.376-7.68 0-32.256 0-61.44-41.984-19.968-28.672-37.376-69.12-51.712-121.344-25.088-88.576-33.28-178.688-33.792-188.416-0.512-10.752-4.096-77.824-31.744-145.408-15.872-38.4-36.352-70.656-61.44-95.744-4.096 33.28-19.968 61.952-43.52 83.456 8.704 12.288 16.384 26.624 23.04 43.008 23.552 56.832 25.6 116.736 25.6 117.248zM338.432 298.496c50.176 0 90.624-40.448 90.624-91.136s-40.448-91.136-90.624-91.136-90.624 40.448-90.624 91.136 40.448 91.136 90.624 91.136z" p-id="28028" fill="#000000"></path></svg>