<?xml version="1.0" standalone="no"?><!DOCTYPE svg PUBLIC "-//W3C//DTD SVG 1.1//EN" "http://www.w3.org/Graphics/SVG/1.1/DTD/svg11.dtd"><svg t="1728479556469" class="icon" viewBox="0 0 1024 1024" version="1.1" xmlns="http://www.w3.org/2000/svg" p-id="15970" xmlns:xlink="http://www.w3.org/1999/xlink" width="200" height="200"><path d="M948.27 720.11L825.59 607a36 36 0 0 0-48.81 52.93l55 50.68H612.34a36 36 0 0 0 0 72h219.39l-55 50.68a36 36 0 0 0 48.81 52.93L948.27 773a36 36 0 0 0 0-52.93z" p-id="15971" fill="#000000"></path><path d="M888 128H136a72 72 0 0 0-72 72v624a72 72 0 0 0 72 72h312.09a36 36 0 0 0 36-36 36 36 0 0 0-36-36H136V200h752v312.13a36 36 0 0 0 36 36 36 36 0 0 0 36-36V200a72 72 0 0 0-72-72z" p-id="15972" fill="#000000"></path><path d="M192.83 328.28h60.61l56.95 129.57H312V328.28h38.92v181.3h-54.6l-62.73-137.93H232v137.93h-39.17zM390.33 449.49V328.28H430v116.77c0 21.95 7.58 33.18 36.31 33.18 29.78 0 36.58-13.06 36.58-33.18V328.28h39.44v121.21c0 44.67-27.69 62.7-76.28 62.7-48.82 0-75.72-14.89-75.72-62.7zM693.62 475.09v34.49H581.81v-181.3h39.71v146.81zM831.55 475.09v34.49h-111.8v-181.3h39.7v146.81z" p-id="15973" fill="#000000"></path></svg>