<?xml version="1.0" standalone="no"?>
<!DOCTYPE svg PUBLIC "-//W3C//DTD SVG 1.1//EN" "http://www.w3.org/Graphics/SVG/1.1/DTD/svg11.dtd">
<svg t="your_timestamp_here" class="icon" viewBox="0 0 46 46" version="1.1" xmlns="http://www.w3.org/2000/svg" p-id="11595" xmlns:xlink="http://www.w3.org/1999/xlink" width="200" height="200">
  <g fill="#FFFFFF">
    <!-- <path d="M0 0h46v46H0z" ></path> -->
    <path d="M23.511 23.571l.005-15.302L37 14.295v15.75l-13.489-6.474z" stroke="#25fdfc" stroke-linecap="round" stroke-linejoin="round" stroke-width="2" fill="#FFFFFF"></path>
    <path d="M23.511 23.571L9.516 30.045l13.929 6.319L37 30.045l-13.489-6.474z" stroke="#25fdfc" stroke-linecap="round" stroke-linejoin="round" stroke-width="2" fill="#FFFFFF"></path>
    <path d="M9.516 30.045v-15.75l13.999-6.026-.004 15.302-13.995 6.474z" stroke="#25fdfc" stroke-linecap="round" stroke-linejoin="round" stroke-width="2" fill="#FFFFFF"></path>
    <path d="M31.536 15.247a6.357 6.357 0 0 1-4.188 6.763c-5.017 2.166-11.255.028-11.255-3.14s5.11-3.87 7.48-3.87 7.48 1.908 7.48 5.684c0 3.654-3.797 5.485-8.216 5.566s-6.744-2.266-6.744-4.104 2.786-3.986 7.458-3.986 7.492 3.526 7.492 5.934a5.722 5.722 0 0 1-2.82 5.074" stroke="#1d9bfb" stroke-linecap="round" stroke-linejoin="round" stroke-width="2" fill="#FFFFFF"></path>
  </g>
</svg>