<?xml version="1.0" standalone="no"?><!DOCTYPE svg PUBLIC "-//W3C//DTD SVG 1.1//EN" "http://www.w3.org/Graphics/SVG/1.1/DTD/svg11.dtd"><svg t="1728820143776" class="icon" viewBox="0 0 1024 1024" version="1.1" xmlns="http://www.w3.org/2000/svg" p-id="7661" xmlns:xlink="http://www.w3.org/1999/xlink" width="200" height="200"><path d="M905.5 915.5l-53.8 11.6 64.1 22.2 10.7-30.7 29 4.6 4.5-32.9-43.5-1.4zM253.5 773.4l-71.3-101.2-71.5 61.8 56.1 61.9-56.1 73.1 173.5 50.6-76.5-78.8zM925.7 868.2l-56.4-73.5 56.4-62.3-71.8-62.2L782.1 772l46.1 67.8-76.9 79.3zM108 881.6l-43.2 1.3 4.4 32.6 28.8-4.4 10.7 30.5 63.7-22L119 908zM181.5 132.7l120.7 60.1h-6.4v260.7h126.7v196.9h-71.2v243.2l161.5 65.1 147.4-65.1V650.4h-71.3V453.5h126.7V194.3l114.3-61.6V63H181.5z" p-id="7662" fill="#000000"></path></svg>