<?xml version="1.0" standalone="no"?><!DOCTYPE svg PUBLIC "-//W3C//DTD SVG 1.1//EN" "http://www.w3.org/Graphics/SVG/1.1/DTD/svg11.dtd"><svg t="1728479958560" class="icon" viewBox="0 0 1024 1024" version="1.1" xmlns="http://www.w3.org/2000/svg" p-id="35187" xmlns:xlink="http://www.w3.org/1999/xlink" width="200" height="200"><path d="M967.68 448s5.12 110.08-30.72 158.72c-35.84 51.2-133.12 128-133.12 128s-2.56 5.12-2.56 10.24l23.04 23.04h58.88c7.68 0 17.92 0 25.6 2.56 58.88 12.8 99.84 64 99.84 122.88 0 17.92-2.56 33.28-10.24 48.64-20.48 46.08-64 76.8-117.76 76.8h-5.12c-66.56-2.56-120.32-58.88-120.32-125.44v-5.12-10.24c0-2.56 0-5.12 2.56-7.68 0-2.56 0-5.12 2.56-10.24 0-2.56 2.56-5.12 2.56-7.68 0-2.56 2.56-5.12 2.56-10.24 0-2.56 2.56-2.56 2.56-5.12s2.56-5.12 2.56-5.12c-12.8-7.68-28.16-10.24-43.52-12.8-15.36 0-30.72 2.56-43.52 12.8 0 2.56 2.56 5.12 2.56 5.12 0 2.56 2.56 2.56 2.56 5.12s2.56 5.12 2.56 10.24c0 2.56 2.56 5.12 2.56 7.68 0 2.56 2.56 5.12 2.56 10.24 0 2.56 0 5.12 2.56 7.68v17.92c0 69.12-56.32 125.44-125.44 125.44-51.2 0-97.28-30.72-117.76-76.8-5.12-15.36-10.24-30.72-10.24-48.64 0-69.12 56.32-125.44 125.44-125.44h58.88l23.04-23.04c0-5.12-2.56-10.24-2.56-10.24s-97.28-76.8-133.12-128c-35.84-51.2-30.72-158.72-30.72-158.72l238.08 227.84 243.2-230.4zM573.44 816.64c-20.48 0-40.96 7.68-56.32 23.04-15.36 15.36-23.04 33.28-23.04 56.32 0 43.52 35.84 79.36 79.36 79.36 43.52 0 79.36-35.84 79.36-79.36v-2.56-12.8c0-2.56 0-5.12-2.56-5.12 0-2.56-2.56-5.12-2.56-7.68 0-2.56-2.56-5.12-2.56-5.12 0-2.56-2.56-5.12-2.56-5.12-2.56-2.56-2.56-5.12-5.12-5.12-2.56-2.56-2.56-5.12-5.12-5.12l-7.68-7.68-2.56-2.56c-2.56-2.56-7.68-5.12-10.24-5.12l-2.56-2.56c-5.12-2.56-7.68-2.56-12.8-5.12h-2.56c-7.68-7.68-12.8-7.68-20.48-7.68z m312.32 0c-5.12 0-10.24 0-17.92 2.56h-2.56c-5.12 0-7.68 2.56-12.8 5.12-2.56 0-2.56 2.56-2.56 2.56-2.56 2.56-7.68 5.12-10.24 5.12l-2.56 2.56-7.68 7.68c-2.56 2.56-2.56 5.12-5.12 5.12-2.56 2.56-2.56 5.12-5.12 5.12 0 2.56-2.56 5.12-2.56 5.12 0 2.56-2.56 5.12-2.56 5.12 0 2.56-2.56 5.12-2.56 7.68 0 2.56 0 5.12-2.56 5.12v15.36c0 40.96 30.72 74.24 71.68 76.8h10.24c43.52 0 76.8-35.84 76.8-79.36 0-20.48-7.68-40.96-23.04-56.32-17.92-7.68-38.4-15.36-58.88-15.36z m-156.16-122.88c-5.12 0-7.68 0-12.8 2.56h-2.56c-5.12 2.56-7.68 2.56-10.24 5.12-5.12 2.56-7.68 7.68-10.24 10.24-2.56 2.56-5.12 7.68-5.12 12.8v2.56c-2.56 5.12-2.56 10.24-2.56 15.36 0 15.36 7.68 28.16 17.92 38.4 7.68 5.12 17.92 10.24 28.16 10.24 10.24 0 20.48-5.12 28.16-10.24 10.24-7.68 17.92-23.04 17.92-38.4 0-5.12 0-10.24-2.56-15.36v-2.56c-2.56-5.12-2.56-7.68-5.12-12.8s-7.68-7.68-10.24-10.24c-2.56-2.56-7.68-5.12-10.24-5.12h-2.56c-10.24-2.56-12.8-2.56-17.92-2.56zM716.8 25.6c28.16 0 51.2 23.04 51.2 51.2v471.04c0 20.48-17.92 38.4-38.4 38.4s-38.4-17.92-38.4-38.4V102.4H102.4v514.56h345.6c20.48 0 38.4 17.92 38.4 38.4s-17.92 38.4-38.4 38.4H76.8c-28.16 0-51.2-23.04-51.2-51.2V76.8c0-28.16 23.04-51.2 51.2-51.2h640z" fill="#000000" p-id="35188"></path></svg>