<?xml version="1.0" standalone="no"?><!DOCTYPE svg PUBLIC "-//W3C//DTD SVG 1.1//EN" "http://www.w3.org/Graphics/SVG/1.1/DTD/svg11.dtd"><svg t="1728479916541" class="icon" viewBox="0 0 1024 1024" version="1.1" xmlns="http://www.w3.org/2000/svg" p-id="29691" xmlns:xlink="http://www.w3.org/1999/xlink" width="200" height="200"><path d="M115.2 819.2l57.6-19.2L128 896l96-51.2v44.8l83.2-19.2-147.2-147.2-44.8 96z m262.4-569.6s-128-83.2-230.4 25.6C-32 454.4 6.4 652.8 6.4 652.8s38.4-64 153.6-76.8C256 384 377.6 249.6 377.6 249.6zM448 864c-12.8 115.2-70.4 153.6-70.4 153.6s198.4 38.4 377.6-140.8c102.4-102.4 25.6-230.4 25.6-230.4s-140.8 128-332.8 217.6z m-51.2-582.4c-96 96-249.6 390.4-249.6 390.4l204.8 204.8s294.4-153.6 390.4-249.6c44.8-44.8 76.8-83.2 102.4-128l-320-320c-38.4 32-83.2 64-128 102.4z m236.8 108.8c38.4 38.4 38.4 96 0 128-38.4 38.4-96 38.4-128 0-38.4-38.4-38.4-96 0-128 32-32 89.6-32 128 0zM1024 25.6l-25.6-25.6-89.6 89.6c-51.2-6.4-198.4-19.2-358.4 76.8l307.2 307.2c96-166.4 83.2-307.2 76.8-358.4L1024 25.6z" fill="#FFFFFF" p-id="29692"></path></svg>