<?xml version="1.0" standalone="no"?><!DOCTYPE svg PUBLIC "-//W3C//DTD SVG 1.1//EN" "http://www.w3.org/Graphics/SVG/1.1/DTD/svg11.dtd"><svg t="1728479881941" class="icon" viewBox="0 0 1024 1024" version="1.1" xmlns="http://www.w3.org/2000/svg" p-id="27817" xmlns:xlink="http://www.w3.org/1999/xlink" width="200" height="200"><path d="M600.064 942.08c-29.184 0-53.76-8.192-72.192-24.064-16.384-13.824-38.4-42.496-31.232-95.744-23.04 2.56-45.568 3.072-79.36-3.584-5.12-1.024-10.24-3.584-14.336-6.656l-159.744-133.12c-5.632-4.608-9.728-11.264-11.264-18.432-0.512-2.56-10.752-54.784-14.336-118.784-49.664 22.528-78.848 10.24-94.72-4.096-4.096-4.096-7.68-9.216-9.216-14.848-10.752-36.864-14.336-79.36-9.216-119.296 6.144-47.616 23.552-90.624 51.2-123.392 25.088-29.696 57.344-51.712 96.256-65.024 38.4-13.312 82.944-17.92 133.12-13.824 85.504-77.312 172.544-126.464 265.728-151.04 89.6-23.552 186.368-25.088 303.616-4.608 12.8 2.048 23.552 12.288 26.112 25.088 14.848 69.12 21.504 134.656 18.944 195.072-2.048 55.296-11.776 108.544-28.672 157.696-32.256 94.72-87.552 163.84-130.048 209.92 8.192 58.368-0.512 115.2-26.112 164.864-23.552 46.08-60.928 85.504-105.984 112.128-31.232 18.432-63.488 29.184-94.208 31.744h-14.336z m-60.416-189.952c10.24 0 19.456 4.608 25.6 12.8 6.656 8.704 8.704 20.48 4.608 31.232-13.312 35.328-13.312 61.952-0.512 72.704 15.872 13.312 58.88 12.8 106.496-14.848 61.952-36.352 120.32-114.688 98.816-225.28-2.048-10.24 1.024-20.992 8.192-28.672 96.768-101.376 188.416-239.104 139.264-494.592-206.848-31.232-353.792 13.824-503.296 153.088-6.656 6.144-16.384 9.728-25.6 8.704-86.528-9.216-150.016 9.216-187.904 54.784-38.912 46.592-45.056 114.688-33.792 166.912 5.632-1.024 14.848-3.584 27.648-10.752 16.384-8.704 29.184-18.944 29.184-18.944 9.728-7.68 23.552-9.216 34.816-3.584s18.432 17.408 17.92 29.696c-1.536 62.464 7.68 126.464 11.776 151.552l144.384 120.32c27.136 4.608 42.496 2.56 68.608-0.512 8.704-1.024 18.944-2.56 30.208-3.584 1.536-1.024 2.56-1.024 3.584-1.024z" fill="#000000" p-id="27818"></path><path d="M671.232 492.032c-76.8 0-139.264-62.464-139.264-139.264s62.464-139.264 139.264-139.264S810.496 276.48 810.496 353.28s-62.464 138.752-139.264 138.752z m0-212.992c-40.96 0-74.24 33.28-74.24 74.24s33.28 74.24 74.24 74.24S745.472 394.24 745.472 353.28s-33.28-74.24-74.24-74.24zM57.344 1015.296c-8.192 0-16.384-3.072-23.04-9.728-12.8-12.8-12.8-33.28 0-46.08l198.144-198.144c12.8-12.8 33.28-12.8 46.08 0s12.8 33.28 0 46.08l-198.144 198.144c-6.144 6.656-14.336 9.728-23.04 9.728zM63.488 816.128c-8.192 0-16.896-3.072-23.04-9.728-12.8-12.8-12.288-33.28 0.512-46.08l89.6-88.576c12.8-12.8 33.28-12.288 46.08 0.512s12.288 33.28-0.512 46.08l-89.6 88.576c-6.656 6.144-14.848 9.216-23.04 9.216zM271.36 992.768c-8.192 0-16.896-3.072-23.04-9.728-12.8-12.8-12.288-33.28 0-46.08l80.384-79.36c12.8-12.8 33.28-12.288 46.08 0 12.8 12.8 12.288 33.28 0 46.08L294.4 983.04c-6.656 6.656-14.848 9.728-23.04 9.728z" fill="#000000" p-id="27819"></path></svg>