<?xml version="1.0" standalone="no"?><!DOCTYPE svg PUBLIC "-//W3C//DTD SVG 1.1//EN" "http://www.w3.org/Graphics/SVG/1.1/DTD/svg11.dtd"><svg t="1728400706986" class="icon" viewBox="0 0 1149 1024" version="1.1" xmlns="http://www.w3.org/2000/svg" p-id="5579" xmlns:xlink="http://www.w3.org/1999/xlink" width="224.4140625" height="200"><path d="M1014.608449 35.891069l-3.912419-12.639433-12.639433-3.912418c-7.521133-2.331373-185.143137-55.944009-267.232462 26.16318L536.623482 239.685187l-250.484095 3.51939c-9.379085 0.142919-18.329412 3.769499-25.234205 10.227668L18.647884 481.049239c-11.451416 10.727887-15.033333 27.092157-9.120044 41.634204 5.823965 14.336601 19.454902 23.483442 34.872331 23.483442h0.714597L233.509321 542.781482l-48.128104 48.128105c-18.525926 18.543791-24.832244 44.572985-19.33878 68.422658C61.755945 747.004358 75.762045 773.551634 82.023701 785.154902c7.780174 14.381264 22.036383 19.097603 39.829847 18.302615-67.109586 112.522222-43.152723 136.380828-32.264052 147.260566 24.215904 24.072985 67.002396 14.55098 147.323093-34.899129-3.001307 25.734423 0.812854 44.179956 18.624183 52.764053 4.64488 2.25098 9.36122 3.438998 14.283007 3.438997 24.162309 0 53.80915-28.717865 110.08366-103.089542 3.733769 0.571678 7.476471 1.071895 11.245969 1.071896 18.784967 0 37.578867-7.163834 51.879739-21.446841l43.32244-43.32244-10.504575 178.845751c-0.928976 15.676471 7.699782 30.013072 22.000653 36.498039a37.661046 37.661046 0 0 0 15.694336 3.421133c9.620261 0 19.052941-3.715904 26.288235-10.826144l237.272984-232.788888c6.770806-6.618954 10.763617-15.462091 11.237037-24.778649l15.292375-267.66122 184.812636-184.812636c82.107189-82.107189 28.485621-259.720261 26.163181-267.241394zM475.998863 744.735513L289.212154 557.948803l409.973201-409.96427c4.180392 52.674728 23.099346 97.140523 56.363835 130.413943 33.264488 33.264488 77.596296 52.353159 130.235294 56.542484L475.998863 744.735513zM76.449845 495.501962l215.254465-202.257734 194.093464-2.733333-201.248365 201.2305-208.099564 3.760567z m214.325489 403.631154c1.545316-7.047712 3.537255-15.444227 6.100872-25.430719 2.858388-11.040523-1.322004-22.429412-10.647495-29.012636-9.245098-6.574292-21.777342-6.690414-31.236819-0.330501-81.910675 55.452723-115.568191 66.493246-127.769934 68.422657 2.108061-14.756427 15.837255-53.433987 65.126579-126.778431 6.592157-9.852505 6.216993-22.813508-0.911111-32.272984-7.208497-9.522004-19.687146-13.443355-31.084967-9.789979-5.922222 1.911547-11.094118 3.438998-15.596079 4.68061 12.014161-13.211111 29.31634-29.843355 48.279957-46.332679l142.383442 142.383442c-19.606754 25.636166-34.130937 42.938344-44.644445 54.46122z m83.947277-86.001743L220.834158 659.233988c-9.066449-9.066449-9.066449-23.831808-0.017865-32.898257l32.960784-32.960785L440.563787 780.161656l-32.951851 32.951852c-9.066449 9.048584-23.822876 9.048584-32.889325 0.017865z m363.881699-65.162309l-210.850763 206.857951 11.924837-202.909803L750.404092 541.182572l-11.799782 206.786492z m214.423746-480.271677l-16.551851 16.551852c-44.823094 4.591285-103.955991 0.267974-145.500872-41.276906-41.65207-41.65207-45.796732-100.954684-41.241176-145.536601l16.516122-16.516122c46.073638-46.037908 152.950544-30.51329 204.097821-17.320044 13.175381 51.129412 28.753595 158.024183-17.320044 204.097821z" fill="#FFFFFF" p-id="5580"></path><path d="M637.890802 302.230285c-47.020479 0-85.269281 38.248802-85.269281 85.26928s38.248802 85.269281 85.269281 85.269281c47.002614 0 85.251416-38.248802 85.251416-85.269281s-38.248802-85.269281-85.251416-85.26928z m0 120.42745c-19.392375 0-35.167102-15.774728-35.167102-35.167102s15.774728-35.167102 35.167102-35.167102c19.37451 0 35.149237 15.774728 35.149238 35.167102s-15.774728 35.167102-35.149238 35.167102zM477.320868 466.551853c-47.020479 0-85.269281 38.248802-85.269281 85.269281s38.248802 85.269281 85.269281 85.269281 85.269281-38.248802 85.269281-85.269281-38.248802-85.269281-85.269281-85.269281z m0 120.427451c-19.392375 0-35.167102-15.774728-35.167102-35.167103s15.774728-35.167102 35.167102-35.167102c19.392375 0 35.167102 15.774728 35.167102 35.167102s-15.774728 35.167102-35.167102 35.167103z" fill="#FFFFFF" p-id="5581"></path></svg>